<svg width="89" height="78" viewBox="0 0 89 78" fill="none" xmlns="http://www.w3.org/2000/svg">
<g clip-path="url(#clip0_1020_48428)">
<path d="M82.581 41.5538C83.5816 41.6395 84.0318 41.9885 84.0318 41.9885C84.0318 41.9885 86.1426 40.8953 87.251 41.5051C88.3594 42.1149 88.6332 45.441 86.7167 46.5519C86.39 46.7405 86.0982 47.9165 85.8578 48.885C85.6969 49.5334 85.5591 50.0889 85.4493 50.193C85.3102 50.3259 83.3843 50.2711 81.5228 50.185L85.5244 50.5056C86.6151 54.8895 85.7253 60.3488 84.4778 64.1251C83.2303 67.9014 83.4886 74.1146 83.4886 74.1146L83.9192 74.6978C84.2482 75.1457 84.4094 75.6934 84.3762 76.2478C84.3475 76.6979 83.9788 77.0483 83.5306 77.0527L82.409 77.0616C81.7245 77.066 81.0996 76.6669 80.8192 76.0394L80.6713 75.7067C80.5432 75.4207 80.4969 75.1058 80.5366 74.7954C80.6558 73.8729 80.8789 71.7065 80.6978 69.3982C80.4593 66.3448 80.6227 63.9699 80.6227 63.9699L78.1874 64.5819C78.0196 65.2006 78.4015 67.6952 78.6974 69.4026C78.8807 70.4625 78.5826 71.5468 77.8827 72.3606L76.1671 74.3519C75.7012 74.893 74.871 74.9107 74.3831 74.3918C73.9061 73.884 73.8377 73.1168 74.2153 72.5314L74.9969 71.3229C75.3259 70.8129 75.3766 70.172 75.1316 69.6177C74.2903 67.7107 73.469 64.8103 73.469 64.8103C71.9994 64.8773 69.9569 64.3297 68.3614 63.8C68.1111 65.1969 67.2868 67.8439 64.5798 69.4514C64.5798 69.4514 63.414 70.7841 64.0543 74.1391C64.0653 74.2012 64.4738 74.4939 64.8557 74.7555C65.2797 75.046 65.5446 75.5161 65.5755 76.0305C65.6087 76.5982 65.1649 77.0794 64.5996 77.0927L63.6436 77.1149C63.0099 77.1304 62.4226 76.7933 62.1113 76.239L61.6388 75.3964C61.4886 75.1258 61.4158 74.822 61.429 74.5116C61.4898 73.1719 61.6105 69.3483 61.0486 68.3832C60.6561 68.7232 60.4023 68.9391 60.4023 68.9391C58.987 72.334 59.5898 74.3918 59.5898 74.3918L60.0866 74.9528C60.4178 75.3254 60.5723 75.8221 60.5149 76.3165C60.4664 76.7489 60.1087 77.0793 59.6759 77.0971L59.3359 77.1104C58.3798 77.1459 57.4768 76.6647 56.9712 75.8487C56.768 75.5183 56.6775 75.128 56.7327 74.7444C57.0772 72.3451 56.2006 67.5067 56.2006 67.5067C56.2006 67.5067 58.3026 64.8391 58.3026 63.0563C58.3026 61.2735 58.7265 59.4485 59.2696 57.5194C59.3403 57.2683 59.4088 56.9763 59.4833 56.6582C59.5081 56.5525 59.5335 56.444 59.56 56.3331C58.779 56.5181 57.9312 56.3869 57.2471 55.934C56.2734 55.2887 55.6839 54.0247 55.77 52.7941C55.7811 52.6233 55.8319 52.4615 55.918 52.3173C56.2401 51.7729 56.6973 51.7049 57.0558 51.8832C56.291 50.4203 56.3455 48.4509 57.2847 47.0953L58.2429 49.51C57.7064 47.6452 57.9272 45.5408 58.8347 43.8534C59.4993 42.6161 60.5282 41.616 61.7249 41.0062C62.0163 40.8576 62.2813 41.2545 62.0671 41.514C61.0448 42.7491 60.3957 44.3479 60.2742 46.0043C60.122 48.0953 60.8152 50.2428 62.1315 51.7806C62.7064 51.444 63.4135 51.2418 64.2905 51.2418C73.4049 51.2418 76.9509 49.8094 76.9509 49.8094L76.9443 49.8182L77.9123 49.8958C77.6339 49.4936 76.5796 47.818 77.026 46.0885L76.3592 45.3013C76.1163 45.0153 75.9772 44.656 75.9639 44.2813C75.933 43.3322 75.975 41.5006 76.6793 40.6691C77.4613 39.7466 77.8773 41.4242 78.1275 42.433C78.1888 42.6804 78.2401 42.8875 78.2845 43.0063C78.2845 43.0063 78.8944 42.1295 80.542 41.7278C80.5811 41.058 80.7253 39.6144 81.2476 39.2433C81.7785 38.8661 82.1458 40.105 82.4208 41.0328C82.478 41.2257 82.5312 41.4051 82.581 41.5538Z" fill="#FFC542"/>
<path d="M83.6872 77.1527C83.6872 77.1527 83.6806 77.1527 83.6761 77.1527C83.6143 77.1461 83.5702 77.0906 83.5746 77.0286C83.7093 75.636 83.091 75.3012 83.0844 75.2967C83.0292 75.2679 83.0071 75.2014 83.0336 75.146C83.0601 75.0905 83.1264 75.0684 83.1816 75.095C83.2125 75.1105 83.9477 75.4874 83.7954 77.0507C83.7888 77.1084 83.7402 77.1527 83.6828 77.1527H83.6872Z" fill="#808B9A"/>
<path d="M82.8796 77.1527C82.8796 77.1527 82.8729 77.1527 82.8685 77.1527C82.8067 77.1461 82.7626 77.0906 82.767 77.0286C82.9017 75.636 82.2834 75.3012 82.2768 75.2967C82.2216 75.2679 82.1995 75.2014 82.226 75.146C82.2525 75.0905 82.3188 75.0684 82.374 75.095C82.4049 75.1105 83.1401 75.4874 82.9878 77.0507C82.9811 77.1084 82.9326 77.1527 82.8752 77.1527H82.8796Z" fill="#808B9A"/>
<path d="M75.1509 74.8709C75.1156 74.8709 75.0781 74.8531 75.0582 74.8198C75.0229 74.7688 75.0383 74.6979 75.0891 74.6624C75.5616 74.3475 75.9348 73.6357 75.937 73.6269C75.9657 73.5714 76.0319 73.5493 76.0893 73.5781C76.1445 73.6069 76.1666 73.6757 76.1379 73.7311C76.1224 73.7621 75.7338 74.5005 75.215 74.8487C75.1951 74.862 75.1752 74.8686 75.1531 74.8686L75.1509 74.8709Z" fill="#808B9A"/>
<path d="M74.4996 74.6445C74.4642 74.6445 74.4267 74.6268 74.4068 74.5935C74.3715 74.5425 74.387 74.4715 74.4377 74.4383C74.9102 74.1212 75.2834 73.4116 75.2856 73.4027C75.3143 73.3473 75.3828 73.3274 75.4379 73.354C75.4931 73.3828 75.5152 73.4515 75.4865 73.507C75.4711 73.538 75.0825 74.2764 74.5636 74.6245C74.5437 74.6379 74.5239 74.6445 74.5018 74.6445H74.4996Z" fill="#808B9A"/>
<path d="M60.206 76.9997H60.2016C60.1398 76.9975 60.0912 76.9443 60.0956 76.8822C60.142 75.8666 59.5083 75.4142 59.5017 75.4098C59.4509 75.3743 59.4376 75.3034 59.473 75.2524C59.5083 75.2014 59.5789 75.1881 59.6297 75.2235C59.6606 75.2457 60.3716 75.7535 60.3186 76.891C60.3164 76.9509 60.2656 76.9997 60.206 76.9997Z" fill="#808B9A"/>
<path d="M59.3957 77.2282H59.3913C59.3295 77.226 59.2809 77.1728 59.2831 77.1107C59.3295 76.1018 58.7157 75.6583 58.6892 75.6383C58.6384 75.6028 58.6251 75.5319 58.6605 75.4809C58.6958 75.4299 58.7664 75.4166 58.8172 75.452C58.8481 75.4742 59.5591 75.982 59.5061 77.1196C59.5039 77.1794 59.4531 77.2282 59.3935 77.2282H59.3957Z" fill="#808B9A"/>
<path d="M65.3242 76.9997H65.3197C65.2579 76.9975 65.2094 76.9443 65.2138 76.8822C65.2601 75.8732 64.6463 75.4298 64.6198 75.4098C64.569 75.3743 64.5558 75.3034 64.5911 75.2524C64.6265 75.2014 64.6971 75.1881 64.7479 75.2235C64.7788 75.2457 65.4898 75.7535 65.4368 76.891C65.4346 76.9509 65.3838 76.9997 65.3242 76.9997Z" fill="#808B9A"/>
<path d="M64.5139 77.2282H64.5095C64.4476 77.226 64.3991 77.1728 64.4013 77.1107C64.4476 76.0951 63.814 75.6427 63.8073 75.6383C63.7565 75.6028 63.7433 75.5319 63.7786 75.4809C63.814 75.4299 63.8846 75.4166 63.9354 75.452C63.9663 75.4742 64.6773 75.982 64.6243 77.1196C64.6221 77.1794 64.5713 77.2282 64.5117 77.2282H64.5139Z" fill="#808B9A"/>
<path d="M61.0202 68.4516C60.9804 68.4516 60.9429 68.4294 60.9208 68.3939C60.8899 68.3385 60.9098 68.2697 60.965 68.2409C64.7516 66.1499 65.3367 64.8305 65.7077 63.3204C65.9792 62.2117 65.902 60.6617 64.8708 59.6373C64.8267 59.5929 64.8267 59.5219 64.8708 59.4776C64.915 59.4332 64.9857 59.4332 65.0298 59.4776C66.1272 60.5664 66.2133 62.205 65.9262 63.3736C65.478 65.2052 64.6037 66.4913 61.0754 68.4382C61.0577 68.4471 61.0401 68.4516 61.0224 68.4516H61.0202Z" fill="#808B9A"/>
<path d="M68.3612 63.9077C68.348 63.9077 68.3347 63.9055 68.3215 63.9011L65.842 62.9764C65.7846 62.9542 65.7536 62.8899 65.7757 62.8323C65.7978 62.7746 65.8618 62.7436 65.9192 62.7657L68.3988 63.6904C68.4562 63.7126 68.4871 63.7769 68.465 63.8345C68.4473 63.8811 68.4054 63.9077 68.359 63.9077H68.3612Z" fill="#808B9A"/>
<path d="M73.4354 64.917C73.3802 64.917 73.3317 64.8748 73.325 64.8194C73.3206 64.795 73.0225 62.2804 75.9238 60.3047C75.9746 60.2692 76.0452 60.2825 76.0806 60.3358C76.1159 60.3868 76.1026 60.4577 76.0496 60.4932C73.261 62.3913 73.5436 64.7684 73.5458 64.7906C73.5547 64.8527 73.5105 64.9081 73.4487 64.917C73.4443 64.917 73.4376 64.917 73.4332 64.917H73.4354Z" fill="#808B9A"/>
<path d="M80.6355 64.0452C80.5781 64.0452 80.5295 64.0031 80.5251 63.9454C80.5184 63.8834 80.5626 63.8279 80.6244 63.8213C80.6355 63.8213 81.7946 63.6927 82.6513 63.3534C82.7087 63.329 82.775 63.3578 82.797 63.4177C82.8191 63.4754 82.7904 63.5419 82.733 63.5641C81.8476 63.9144 80.6973 64.0408 80.6487 64.0452C80.6443 64.0452 80.6399 64.0452 80.6377 64.0452H80.6355Z" fill="#808B9A"/>
<path d="M81.2828 41.6183C81.2232 41.6183 81.1724 41.5718 81.1702 41.5097C81.1327 40.5207 81.4352 39.6736 81.4484 39.6382C81.4705 39.5805 81.5345 39.5495 81.5919 39.5716C81.6493 39.5938 81.6802 39.6581 81.6582 39.7158C81.656 39.7246 81.3579 40.5562 81.3932 41.5008C81.3954 41.5629 81.3468 41.6161 81.285 41.6183H81.2806H81.2828Z" fill="#808B9A"/>
<path d="M77.637 44.1105C77.637 44.1105 77.6216 44.1105 77.6128 44.1082C77.2948 44.0395 77.0608 43.8688 76.9195 43.6004C76.4911 42.8 77.0365 41.3941 77.0608 41.3342C77.0829 41.2766 77.1491 41.2478 77.2065 41.2699C77.2639 41.2921 77.2926 41.3586 77.2705 41.4163C77.2661 41.4296 76.7406 42.7844 77.1182 43.4918C77.2308 43.7024 77.4074 43.8288 77.6613 43.8843C77.721 43.8976 77.7607 43.9575 77.7474 44.0173C77.7364 44.0705 77.69 44.106 77.637 44.106V44.1105Z" fill="#808B9A"/>
<path d="M82.6186 43.0351C82.5833 42.7091 82.4552 42.4563 82.3338 42.4719C82.2123 42.4852 82.1439 42.7601 82.1792 43.0861C82.2145 43.4121 82.3426 43.6648 82.464 43.6493C82.5855 43.636 82.6539 43.3611 82.6186 43.0351Z" fill="#808B9A"/>
<path d="M87.2505 41.503C86.9326 41.3278 86.5307 41.2946 86.1201 41.3345H86.1179C85.8264 41.5961 85.6233 41.9243 85.7734 42.0463C85.9559 42.1956 86.7665 42.2956 87.1373 42.3343C87.1277 42.3688 87.1359 42.4057 87.1644 42.4343C87.1689 42.441 87.2726 42.6184 87.2903 43.583C87.2947 43.8158 87.2329 43.9799 87.096 44.0841C86.7759 44.3309 86.1584 44.1742 86.0744 44.1529L86.0649 44.1506C86.0053 44.1351 85.9434 44.1684 85.9258 44.2282C85.9103 44.2881 85.9435 44.3502 86.0031 44.3679L86.0091 44.3695C86.0528 44.3814 86.2976 44.4478 86.5793 44.4478L86.5771 44.45C86.8001 44.45 87.0452 44.4079 87.2307 44.2659C87.3545 44.1687 87.4389 44.0392 87.4815 43.8775C87.5696 43.9905 87.6646 44.0464 87.7694 44.0464L87.7672 44.0486H87.7783C88.052 44.0375 88.2132 43.6384 88.2419 43.5586C88.264 43.5009 88.2331 43.4366 88.1757 43.4144C88.1183 43.3923 88.0543 43.4233 88.0322 43.481C87.9792 43.6229 87.8599 43.8202 87.7716 43.8225C87.7208 43.8225 87.6347 43.7448 87.5398 43.532C87.5331 43.5161 87.5233 43.5027 87.5114 43.492C87.4954 42.8593 87.4367 42.4355 87.3484 42.3077L87.6126 41.8356C87.5067 41.6915 87.3852 41.5762 87.2505 41.503Z" fill="#808B9A"/>
<path d="M77.1602 48.5056L76.6943 49.8982L85.7271 51.0135L85.6873 50.0467L77.1602 48.5056Z" fill="#808B9A"/>
<path d="M36.4011 72.8598L32.3252 63.5311L36.4364 62.9346L39.8212 71.1967L39.4503 73.4873L36.4011 72.8598Z" fill="#D9DFE6"/>
<path d="M33.1869 67.7419L37.8987 65.0499L26.2849 33.1566L22.0235 30.0833L16.6074 31.2762L33.1869 67.7419Z" fill="#B3BECD"/>
<path d="M35.7278 71.6935L37.461 76.7936L49.6268 71.5471C49.6268 71.5471 48.567 68.1256 47.2113 68.4516C45.8535 68.7775 42.2103 69.7421 42.2103 69.7421L38.5584 68.7265L38.501 72.1458L35.7256 71.6957L35.7278 71.6935Z" fill="#808B9A"/>
<path d="M42.2259 69.7197C42.2259 69.7197 40.0974 67.7506 39.2695 67.4712C38.2428 67.1253 37.969 68.3427 39.148 68.9037C40.3271 69.4669 42.2259 69.7175 42.2259 69.7175V69.7197Z" fill="#808B9A"/>
<path d="M42.2255 69.8217C42.263 69.8217 42.2983 69.7996 42.316 69.7641C42.3337 69.7242 42.3248 69.6776 42.2917 69.6466C42.2034 69.5645 40.139 67.6597 39.2999 67.3781C38.7413 67.1896 38.4234 67.4313 38.3218 67.6952C38.1695 68.0833 38.3925 68.6576 39.1078 68.9991C40.2869 69.5623 42.1371 69.8129 42.2144 69.8217C42.2188 69.8217 42.2233 69.8217 42.2277 69.8217H42.2255ZM38.9268 67.5134C39.0195 67.5134 39.1255 67.5311 39.2359 67.5688C39.8696 67.7817 41.3246 69.0478 41.9097 69.5712C41.318 69.4714 40.0506 69.2275 39.1895 68.815C38.5912 68.529 38.3903 68.0633 38.5029 67.7684C38.5691 67.5999 38.7214 67.5112 38.9268 67.5112V67.5134Z" fill="white"/>
<path d="M42.7751 70.5002C42.8105 70.5002 42.8436 70.4803 42.8612 70.4492L43.729 68.8704L44.239 70.0723C44.2611 70.1233 44.3185 70.1477 44.3693 70.1255C44.42 70.1033 44.4421 70.0434 44.42 69.9924L43.8327 68.6043C43.8173 68.5688 43.7842 68.5467 43.7466 68.5445C43.7091 68.5445 43.6738 68.5622 43.6561 68.5955L42.7884 70.1743L42.1613 68.693C42.1481 68.6598 42.1172 68.6376 42.0818 68.6332C42.0465 68.6287 42.0134 68.6442 41.9913 68.6731L40.958 70.0612L40.5341 67.3426C40.5274 67.2983 40.4921 67.2628 40.4479 67.2583C40.4038 67.2517 40.3618 67.2783 40.3442 67.3182L39.3903 69.6155C39.3683 69.6665 39.3903 69.7263 39.4433 69.7485C39.4941 69.7707 39.5515 69.7485 39.5736 69.6953L40.3927 67.7196L40.799 70.3251C40.8056 70.365 40.8343 70.3982 40.8719 70.4071C40.9094 70.416 40.9514 70.4027 40.9756 70.3694L42.0465 68.9303L42.6868 70.4404C42.7023 70.4758 42.7354 70.498 42.7729 70.5002H42.7773H42.7751Z" fill="white"/>
<path d="M4.63118 60.105L13.803 56.0781L14.3859 60.2691L6.7199 62.8856L4.01074 63.2005L4.63118 60.105Z" fill="#D9DFE6"/>
<path d="M16.6066 31.6621L22.4467 50.5125L9.30273 57.555L11.8043 62.3801L26.315 56.229C28.1829 55.4374 29.3112 53.4993 29.1036 51.4438L28.1277 41.8733L17.874 30.9702L16.6066 31.6621Z" fill="#B3BECD"/>
<path d="M5.53411 59.5884L0.804688 61.9677L7.56543 73.607C7.56543 73.607 10.7537 72.1147 10.2503 70.7864C9.74688 69.4582 8.31392 65.8948 8.31392 65.8948L8.8063 62.083L5.47008 62.4467L5.53191 59.5884H5.53411Z" fill="#808B9A"/>
<path d="M8.33597 65.908C8.33597 65.908 9.96323 63.5154 10.1222 62.644C10.3187 61.5663 9.09771 61.4377 8.71132 62.6994C8.32493 63.9589 8.33597 65.908 8.33597 65.908Z" fill="#808B9A"/>
<path d="M8.37766 65.9988C8.39311 65.9921 8.40856 65.981 8.4174 65.9655C8.48364 65.8679 10.0579 63.5463 10.2191 62.6638C10.3273 62.0761 10.0469 61.7856 9.77749 61.7147C9.37786 61.6105 8.85015 61.9032 8.61611 62.6682C8.22751 63.9299 8.23634 65.828 8.23634 65.9079C8.23634 65.9522 8.26505 65.9899 8.307 66.0032C8.33129 66.0099 8.35558 66.0099 8.37766 65.9988ZM9.39331 61.9453C9.51033 61.8921 9.62735 61.8788 9.73113 61.9076C9.98063 61.9741 10.0954 62.2469 10.027 62.6238C9.90555 63.2913 8.87003 64.9167 8.44168 65.5708C8.45714 64.961 8.52338 63.6505 8.8082 62.7303C8.93847 62.309 9.1681 62.0495 9.39552 61.9475L9.39331 61.9453Z" fill="white"/>
<path d="M8.36005 68.161C8.36005 68.161 8.36668 68.1588 8.37109 68.1566L9.64287 67.3916C9.67599 67.3716 9.69366 67.3362 9.68924 67.2985C9.68703 67.2608 9.66274 67.2275 9.62742 67.212L7.97366 66.5312L9.33155 65.7152C9.36246 65.6975 9.38013 65.6642 9.38013 65.6287C9.38013 65.5933 9.36026 65.56 9.32934 65.5423L7.83677 64.6686L10.4267 63.9036C10.4686 63.8903 10.4973 63.8526 10.4973 63.806C10.4973 63.7617 10.4664 63.7217 10.4245 63.7084L8.05756 63.0277C8.00457 63.0122 7.94938 63.0432 7.93613 63.0964C7.92288 63.1496 7.95379 63.2051 8.00678 63.2206L10.0403 63.806L7.55857 64.5378C7.52103 64.5488 7.49233 64.5821 7.48791 64.622C7.4835 64.6619 7.50337 64.7018 7.5387 64.7218L9.08426 65.6265L7.70208 66.4581C7.66897 66.478 7.6513 66.5135 7.65572 66.5512C7.65793 66.5889 7.68221 66.6221 7.71754 66.6377L9.3713 67.3184L8.26953 67.9814C8.22316 68.0103 8.2077 68.0701 8.23641 68.1189C8.2629 68.1633 8.3181 68.181 8.36226 68.1588L8.36005 68.161Z" fill="white"/>
<path d="M27.8075 55.7754C27.7531 55.7938 27.6856 55.7456 27.6515 55.6651L22.1608 42.0197C22.1267 41.9321 22.1418 41.8385 22.1983 41.8124C22.2547 41.7864 22.3284 41.8323 22.3626 41.92L27.8533 55.5654C27.8874 55.653 27.8723 55.7466 27.8158 55.7726C27.8117 55.774 27.8096 55.7747 27.8054 55.7761L27.8075 55.7754Z" fill="#808B9A"/>
<path d="M24.6864 50.6232H22.4476C22.3857 50.6232 22.335 50.5722 22.335 50.5101C22.335 50.448 22.3857 50.397 22.4476 50.397H24.6864C24.7483 50.397 24.799 50.448 24.799 50.5101C24.799 50.5722 24.7483 50.6232 24.6864 50.6232Z" fill="#808B9A"/>
<path d="M23.9237 52.3372C23.895 52.3372 23.8663 52.3261 23.8442 52.304L22.6718 51.1265C22.6276 51.0822 22.6276 51.0112 22.6718 50.9669C22.716 50.9225 22.7866 50.9225 22.8308 50.9669L24.0032 52.1443C24.0473 52.1887 24.0473 52.2596 24.0032 52.304C23.9811 52.3261 23.9524 52.3372 23.9237 52.3372Z" fill="#808B9A"/>
<path d="M24.7124 6.27441L23.5996 9.84448L25.8142 10.9244L27.3377 7.00173L24.7124 6.27441Z" fill="#FFC192"/>
<path d="M27.1607 7.45866L25.7852 7.01074L26.7787 8.44099L27.1607 7.45866Z" fill="#FF974A"/>
<path d="M29.6869 3.33209C29.2674 1.44505 27.5871 0.992696 27.5871 0.992696L27.5893 0.990479L24.761 1.93954C24.761 1.93954 24.2266 5.25904 25.0149 6.40767C25.8031 7.55851 27.8499 7.93991 28.9516 7.17933C29.6944 6.66551 29.9874 5.72274 29.8612 4.40077L30.4354 3.50059L29.7421 3.59616C29.7251 3.50942 29.7067 3.4214 29.6869 3.33209Z" fill="#FFC192"/>
<path d="M25.0568 0.482671C25.0568 0.482671 26.6178 0.0369673 29.0753 0.857417C29.6493 1.04812 27.4304 1.6823 26.9358 1.58252C26.9358 1.58252 27.8366 2.04818 27.3376 2.26992C26.9159 2.4584 26.5096 2.31427 26.1012 2.07922C26.1012 2.07922 26.3772 3.08815 25.2511 3.86204C24.1251 4.63371 25.4057 6.55622 25.4057 6.55622L24.3414 7.46537C24.3414 7.46537 22.3984 5.81781 22.3984 3.62921C22.3984 1.618 23.8711 1.02151 25.0568 0.484889V0.482671Z" fill="#808B9A"/>
<path d="M23.8509 4.8556C23.767 4.29016 24.1291 3.76684 24.6613 3.68702C25.1934 3.60719 25.6902 4.00189 25.7741 4.56955C25.858 5.135 25.4937 5.65831 24.9638 5.73814C24.4316 5.81797 23.9348 5.42327 23.8509 4.8556Z" fill="#FFC192"/>
<path d="M27.7751 2.49162C27.742 2.49162 27.7111 2.47831 27.689 2.4517C27.6493 2.40292 27.6559 2.33196 27.7045 2.29205C28.1019 1.96165 28.6428 2.12796 28.6671 2.13461C28.7267 2.15235 28.7599 2.21666 28.74 2.27653C28.7223 2.3364 28.6583 2.36966 28.5987 2.3497C28.5943 2.3497 28.1482 2.21444 27.848 2.46501C27.8281 2.48275 27.8016 2.49162 27.7773 2.49162H27.7751Z" fill="#808B9A"/>
<path d="M29.5767 5.85984C29.4266 5.85984 29.0909 5.81106 28.6692 5.45405C28.6229 5.41414 28.6162 5.34318 28.656 5.2944C28.6957 5.24783 28.7664 5.24118 28.815 5.28109C29.2919 5.68245 29.6164 5.63145 29.6209 5.63145C29.6805 5.61814 29.7401 5.66027 29.7511 5.72236C29.7622 5.78223 29.7246 5.8421 29.665 5.85319C29.6606 5.85319 29.6297 5.85984 29.5789 5.85984H29.5767Z" fill="#808B9A"/>
<path d="M27.9113 2.86809L29.0033 2.70556C29.2567 2.66785 29.4924 2.84348 29.53 3.09792L29.6044 3.60242C29.6627 3.99724 29.391 4.36495 28.9979 4.42347L28.4082 4.51124C28.0151 4.56975 27.6489 4.29697 27.5907 3.90214L27.5169 3.40203C27.479 3.14539 27.6557 2.90613 27.9113 2.86809Z" fill="#A461D8"/>
<path d="M29.5132 3.67584C29.4779 3.67584 29.4448 3.66032 29.4227 3.62927C29.3851 3.57827 29.3962 3.50953 29.447 3.47184L29.6965 3.28557C29.7473 3.24787 29.8157 3.25896 29.8532 3.30996C29.8908 3.36096 29.8797 3.4297 29.8289 3.4674L29.5794 3.65366C29.5596 3.66919 29.5353 3.67584 29.5132 3.67584Z" fill="#808B9A"/>
<path d="M25.1501 4.1214C25.0971 4.1214 25.0507 4.08371 25.0397 4.03049C25.0264 3.9684 25.0662 3.91075 25.1258 3.89744L27.5037 3.40295C27.5633 3.38965 27.623 3.42956 27.6362 3.48943C27.6495 3.55152 27.6097 3.60918 27.5501 3.62248L25.1721 4.11697C25.1721 4.11697 25.1567 4.11919 25.1501 4.11919V4.1214Z" fill="#808B9A"/>
<path d="M25.3905 4.90645C25.4104 4.91976 25.4325 4.92641 25.4546 4.92641C25.4899 4.92641 25.5252 4.90867 25.5473 4.87762C25.5826 4.82662 25.5694 4.75567 25.5186 4.72019L24.5692 4.06826C24.5184 4.03278 24.4477 4.04609 24.4124 4.09709C24.3771 4.14809 24.3903 4.21905 24.4411 4.25452L25.0947 4.70329L24.8165 5.10818C24.7812 5.15918 24.7944 5.23014 24.8452 5.26562C24.8651 5.27893 24.8871 5.28558 24.9092 5.28558C24.9445 5.28558 24.9799 5.26784 25.002 5.23679L25.2807 4.83104L25.3905 4.90645Z" fill="#808B9A"/>
<path d="M16.1515 28.562L14.9658 33.5734L21.02 31.7418L27.783 36.4317L27.4827 29.4357L16.1515 28.562Z" fill="white"/>
<path d="M40.1307 30.8726C40.1307 30.8726 43.6877 32.4713 44.6349 34.4094C45.4342 36.0436 43.0033 37.0171 43.0033 37.0171L40.983 35.6689L37.8389 32.4758L40.1285 30.8726H40.1307Z" fill="#FFC192"/>
<path d="M43.4909 35.0878C43.4534 35.0878 43.4158 35.0678 43.3937 35.0324C43.0603 34.478 42.4377 34.4004 42.4311 34.4004C42.3692 34.3937 42.3251 34.3383 42.3317 34.2762C42.3383 34.2141 42.3935 34.1698 42.4554 34.1764C42.4863 34.1787 43.1928 34.2629 43.5858 34.9148C43.6167 34.9681 43.6013 35.0368 43.5483 35.0701C43.5306 35.0812 43.5108 35.0856 43.4909 35.0856V35.0878Z" fill="#808B9A"/>
<path d="M42.8704 35.9594C42.8417 35.9594 42.8108 35.9483 42.7887 35.9239C42.7468 35.8796 42.7468 35.8064 42.7932 35.7643L43.248 35.3296C43.2922 35.2875 43.3628 35.2875 43.407 35.3341C43.4489 35.3784 43.4489 35.4494 43.4026 35.4937L42.9477 35.9284C42.9256 35.9483 42.8991 35.9594 42.8704 35.9594Z" fill="#808B9A"/>
<path d="M43.9747 40.4095C43.7937 40.4095 43.6104 40.3784 43.4316 40.3186C43.0077 40.1744 42.6654 39.8729 42.4689 39.4693L41.3826 37.2474C41.1861 36.8439 41.1552 36.3871 41.3009 35.9635C41.4444 35.5378 41.7469 35.1941 42.1466 34.9967C42.9745 34.5887 43.9814 34.9324 44.3876 35.764L45.4739 37.9858C45.6705 38.3894 45.7014 38.8462 45.5556 39.2697C45.4121 39.6955 45.1096 40.0392 44.71 40.2365C44.4759 40.3518 44.2265 40.4095 43.9725 40.4095H43.9747ZM42.884 35.4979C42.7361 35.4979 42.5859 35.5311 42.4446 35.5999C41.9501 35.8438 41.7447 36.4492 41.9876 36.9459L43.0739 39.1677C43.1909 39.4094 43.3963 39.589 43.6502 39.6755C43.9041 39.762 44.1757 39.7443 44.4141 39.6267C44.6548 39.5092 44.8336 39.303 44.9197 39.048C45.0059 38.793 44.9882 38.5202 44.8712 38.2808L43.7849 36.0589C43.6104 35.7041 43.255 35.4979 42.884 35.4979Z" fill="#808B9A"/>
<path d="M38.7483 33.5134C38.7483 33.5134 39.2296 35.3805 40.2011 35.9393C41.2697 36.5535 42.7115 37.7887 43.1288 37.3053C43.4181 36.9704 43.5439 36.252 41.8372 34.8062C40.1326 33.3604 40.1945 32.2229 40.1945 32.2229L37.5449 32.622L38.7483 33.5134Z" fill="#FFC192"/>
<path d="M43.2857 36.9971C43.2857 36.9971 43.2658 36.9971 43.257 36.9927C43.1974 36.9772 43.1621 36.9151 43.1775 36.8574C43.1819 36.8397 43.2901 36.1744 41.7666 34.8928C41.7181 34.8529 41.7136 34.7819 41.7534 34.7331C41.7931 34.6865 41.8638 34.6799 41.9124 34.7198C43.5573 36.1035 43.4182 36.8352 43.3961 36.9129C43.3829 36.9639 43.3365 36.9971 43.2879 36.9971H43.2857Z" fill="#808B9A"/>
<path d="M71.4407 49.9068C68.7271 49.9068 65.3468 49.7937 61.9178 49.3924C51.3793 48.1572 45.4311 44.9264 44.2344 39.7842C44.1924 39.6024 44.305 39.4206 44.4861 39.3784C44.6671 39.3363 44.8482 39.4494 44.8901 39.6312C47.5926 51.2373 76.9319 49.073 77.2277 49.0487C77.4132 49.0309 77.5744 49.1728 77.5899 49.3591C77.6053 49.5454 77.4662 49.7072 77.2807 49.7228C77.2388 49.725 74.8741 49.9068 71.4429 49.9068H71.4407Z" fill="#808B9A"/>
<path d="M26.3574 12.1816L40.9255 30.9256L37.7814 33.54L27.2384 22.7788L26.3574 12.1816Z" fill="#A461D8"/>
<path d="M26.3237 11.8071C26.3237 11.8071 27.3504 16.1112 27.3504 18.9251C27.3504 21.739 27.7721 29.602 27.7721 29.602H15.4805L20.8944 12.193L26.3237 11.8093V11.8071Z" fill="#A461D8"/>
<path d="M26.0424 10.3382L26.1895 9.95947L26.5719 10.0864L27.9519 13.2175L26.0332 12.4569L26.0424 10.3382Z" fill="#D6BCFA"/>
<path d="M26.3353 10.2771L23.7564 9.22827L22.0762 11.0687L26.7791 13.3926L26.3353 10.2771Z" fill="white"/>
<path fill-rule="evenodd" clip-rule="evenodd" d="M10.9747 34.9284L11.3037 32.926H11.3059L13.8716 33.731C13.8716 33.731 13.505 34.986 13.6795 35.6867C13.7005 35.7713 13.7171 35.8885 13.7301 36.0292C14.2097 36.5343 14.7865 37.2179 14.9887 37.7688C15.1732 38.2737 15.2919 38.715 15.3904 39.0807L15.3904 39.0808L15.3904 39.0808C15.4592 39.3366 15.5181 39.5555 15.5826 39.7334C15.6246 39.8509 15.5672 39.964 15.4458 39.9973C15.2161 40.0616 14.9335 39.9507 14.7922 39.7445C14.5957 39.454 14.3418 39.0371 14.2226 38.658C14.1749 38.5043 13.9775 38.3172 13.7605 38.1494C13.7514 38.5835 13.7383 38.959 13.7304 39.164L13.7613 42.5252C13.7657 42.7535 13.5626 42.9043 13.3131 42.86C13.0768 42.8179 12.8847 42.6161 12.8781 42.401L12.7698 39.048L12.7599 39.0451L12.4248 42.4521C12.4005 42.6916 12.1753 42.8335 11.928 42.767C11.6939 42.7027 11.5239 42.4743 11.546 42.2481L11.8526 38.7769L11.8321 38.7708L11.4381 41.7934C11.4116 42.0018 11.1842 42.1171 10.9369 42.0462C10.7029 41.9797 10.5395 41.7712 10.5616 41.5739L10.927 38.5033L10.867 38.4855L9.97194 40.4341C9.90791 40.576 9.70257 40.6071 9.51931 40.5051C9.34709 40.4097 9.25877 40.2279 9.31838 40.0926L10.1444 38.232C10.1921 37.9509 10.4922 36.1926 10.6038 35.7422C10.7252 35.2521 10.9747 34.9284 10.9747 34.9284Z" fill="#FFC192"/>
<path d="M21.2485 11.3526C24.1674 9.70721 25.1213 13.7496 25.1213 13.7496H25.1191L23.9879 16.5813L24.0566 16.6304L23.9039 16.7916L23.3085 18.282C23.3085 18.282 22.3577 18.9309 21.0661 19.7865L16.1525 24.972L14.1323 35.3429L10.2109 34.4715L11.6527 24.1471C11.8559 23.3001 12.2423 22.5084 12.7854 21.8299L19.4141 13.5248C20.1315 12.4232 20.7744 11.62 21.2485 11.3526Z" fill="#A461D8"/>
<path d="M17.2629 23.9873C17.2364 23.9873 17.2077 23.9762 17.1856 23.9562C17.1392 23.9141 17.137 23.8431 17.1812 23.7966L21.7097 18.9426C21.7517 18.896 21.8223 18.8938 21.8687 18.9382C21.9128 18.9803 21.9172 19.0513 21.8731 19.0978L17.3446 23.9518C17.3225 23.9762 17.2916 23.9873 17.2629 23.9873Z" fill="white"/>
<path d="M27.6341 23.2112C27.5767 23.2112 27.5281 23.1669 27.5215 23.1092L26.6692 13.4035C26.6648 13.3414 26.709 13.286 26.7708 13.2816C26.8326 13.2771 26.8878 13.3215 26.8923 13.3836L27.7445 23.0893C27.7489 23.1514 27.7048 23.2068 27.643 23.2112C27.6385 23.2112 27.6363 23.2112 27.6319 23.2112H27.6341Z" fill="white"/>
<path d="M15.8101 24.4797C15.7792 24.4797 15.7482 24.4664 15.7262 24.442L14.6178 23.1714C14.5758 23.1249 14.5824 23.0539 14.6288 23.0118C14.6752 22.9719 14.7458 22.9763 14.7878 23.0229L15.8962 24.2934C15.9381 24.34 15.9315 24.411 15.8851 24.4531C15.8631 24.4708 15.8366 24.4819 15.8101 24.4819V24.4797Z" fill="white"/>
</g>
<defs>
<clipPath id="clip0_1020_48428">
<rect width="88.0417" height="77.913" fill="white" transform="translate(0.208984 0.0217285)"/>
</clipPath>
</defs>
</svg>
