<svg width="88" height="83" viewBox="0 0 88 83" fill="none" xmlns="http://www.w3.org/2000/svg">
<g clip-path="url(#clip0_1020_48146)">
<path d="M57.5813 58.4961H29.1064V92.8527H57.5813V58.4961Z" fill="#808B9A"/>
<path d="M60.8367 28.3153H33.0965C32.9473 28.3153 32.8301 28.1981 32.8301 28.0489V0.313982C32.8301 0.164812 32.9473 0.0476074 33.0965 0.0476074H60.8367C60.9859 0.0476074 61.1031 0.164812 61.1031 0.313982V28.0489C61.1031 28.1981 60.9859 28.3153 60.8367 28.3153ZM33.3628 27.7826H60.5704V0.580357H33.3628V27.7826Z" fill="#82C43C"/>
<path d="M43.6394 4.73047H50.2987V10.8518H56.4201V17.5111H50.2987V23.6271H43.6394V17.5111H37.5234V10.8518H43.6394V4.73047Z" fill="#82C43C"/>
<path d="M19.8288 24.5769C19.8288 24.5769 20.8494 33.3548 18.4463 34.1064L21.3803 34.1547L22.3146 31.7964L22.8559 34.7304L32.9543 28.8072L25.5555 22.884L19.8323 24.5769H19.8288Z" fill="#808B9A"/>
<path d="M33.0438 27.6902L45.9349 21.2291C49.4412 19.4708 53.7061 20.6327 55.8368 23.9253L71.8653 48.9868C73.2582 51.1658 73.0892 53.9929 71.4447 55.9892L64.7974 64.7947L56.7815 64.6878L61.7738 52.5794L56.1333 45.153L59.7431 56.3133L28.3584 64.2706L23.866 67.7287C21.4698 69.5732 18.1117 69.5077 15.7845 67.5736C13.9055 66.0083 13.0711 63.519 13.6262 61.1401L18.6289 39.6917C19.0667 37.8127 20.2079 36.1716 21.818 35.1097L33.0335 27.6902H33.0438Z" fill="#DCF0FF"/>
<path d="M35.9327 33.9858L29.5889 34.7271L34.3778 60.061L41.5077 59.0129L35.9327 33.9858Z" fill="#B3BECD"/>
<path d="M27.1621 31.5796C27.9137 32.7863 30.9477 37.0684 34.8678 34.7894C38.6706 32.576 38.5672 26.7942 38.4362 24.9875L33.0474 27.6906L27.1656 31.5796H27.1621Z" fill="#FFC192"/>
<path d="M27.0554 57.658L24.9971 91.0975L33.0751 85.788L34.3439 56.696L27.0554 57.658Z" fill="#DCF0FF"/>
<path d="M40.2499 56.3721L39.7568 83.385L60.3377 84.3913C60.3377 84.3913 60.8294 58.6579 59.1986 52.9864C57.5678 47.3149 40.2464 56.3721 40.2464 56.3721H40.2499Z" fill="#DCF0FF"/>
<path d="M29.6166 29.9556L34.3779 50.6144L32.2782 50.9591L28.3134 40.3574L29.4201 38.4508L26.0654 32.2724L29.6166 29.9556Z" fill="#96D3FF"/>
<path d="M35.4502 26.356L36.7603 47.1561L39.391 43.8394L39.6599 34.7271L37.8291 33.6962L39.1462 24.6287L35.4502 26.356Z" fill="#96D3FF"/>
<path fill-rule="evenodd" clip-rule="evenodd" d="M31.9793 24.3286C31.9451 23.1839 31.6044 22.0199 30.9361 20.9704C31.5291 20.5693 31.6675 19.7203 31.237 19.0643C30.8026 18.4024 29.9579 18.1886 29.3511 18.5851C29.1955 18.6868 29.0705 18.8188 28.9779 18.9702C26.9363 17.6199 24.2861 17.5099 22.2427 18.9064C19.4995 20.7813 18.8887 24.6613 20.8785 27.5728C20.9614 27.6941 21.0475 27.8118 21.1367 27.9259C20.861 28.045 20.6309 28.2535 20.4973 28.5356C20.187 29.1906 20.5145 29.9974 21.2282 30.3353C21.9419 30.6732 22.7728 30.4146 23.0831 29.7595C23.1016 29.7205 23.1178 29.6809 23.1318 29.6408C25.1076 30.7443 27.5421 30.7526 29.4484 29.4497C29.498 29.4159 29.5469 29.3813 29.5951 29.3461L31.8101 31.042L35.5785 27.7701L31.9793 24.3286Z" fill="#FFC192"/>
<path d="M30.5479 20.4126C30.5479 20.4126 33.1681 26.5151 32.1614 29.8525L33.8715 27.6218C33.8715 27.6218 33.6439 22.2813 30.5479 20.4126Z" fill="#808B9A"/>
<path d="M27.4376 25.4534C27.4376 25.4534 25.2173 22.9986 28.0134 21.354C28.0134 21.354 30.5475 23.5295 27.4376 25.4534Z" fill="white"/>
<path d="M21.5586 28.2046C21.5586 28.2046 24.6512 29.6561 25.2166 27.1358C25.2166 27.1358 22.8653 25.2844 21.5586 28.2046Z" fill="white"/>
<path d="M30.3301 29.2814C30.2715 29.2814 30.2164 29.2504 30.1819 29.1987C30.1336 29.116 30.1578 29.0125 30.2405 28.9608C30.2612 28.947 32.2643 27.692 32.4333 23.4858C32.4367 23.3893 32.5229 23.3203 32.6125 23.3203C32.7091 23.3238 32.7815 23.4031 32.778 23.4996C32.6022 27.8886 30.5094 29.2021 30.4198 29.2539C30.3922 29.2711 30.3612 29.278 30.3301 29.278V29.2814Z" fill="#808B9A"/>
<path d="M26.4034 26.9494C26.3206 26.9494 26.2482 26.8874 26.2344 26.8046L26.0896 25.8806C26.0827 25.8289 26.0965 25.7772 26.131 25.7393C26.1655 25.7013 26.2137 25.6807 26.2689 25.6807L27.2998 25.7289C27.3963 25.7324 27.4687 25.8151 27.4653 25.9082C27.4618 26.0048 27.3791 26.0806 27.286 26.0737L26.4654 26.0358L26.5757 26.7495C26.5895 26.8426 26.5275 26.9322 26.4309 26.946C26.4206 26.946 26.4137 26.946 26.4034 26.946V26.9494Z" fill="#808B9A"/>
<path d="M27.6856 28.4114C27.6063 28.4114 27.5339 28.3562 27.5167 28.2735C27.4994 28.1804 27.558 28.0907 27.6511 28.07C28.4855 27.9046 28.4613 26.9564 28.4613 26.9151C28.4613 26.8185 28.5338 26.7392 28.6268 26.7358C28.7337 26.7289 28.8027 26.8082 28.8061 26.9013C28.8234 27.346 28.6165 28.2286 27.7201 28.4079C27.7097 28.4079 27.696 28.4079 27.6856 28.4079V28.4114Z" fill="#808B9A"/>
<path d="M25.5545 23.4294C25.4683 23.4294 25.3925 23.3639 25.3822 23.2742C25.2994 22.4295 26.2303 21.3814 26.2717 21.3366C26.3372 21.2677 26.4441 21.2608 26.5165 21.3228C26.5889 21.3849 26.5923 21.4952 26.5303 21.5676C26.5199 21.5779 25.658 22.5433 25.7269 23.2398C25.7373 23.3328 25.6683 23.419 25.5718 23.4294C25.5649 23.4294 25.5614 23.4294 25.5545 23.4294Z" fill="#808B9A"/>
<path d="M21.5594 26.6324C21.5387 26.6324 21.518 26.629 21.4973 26.6221C21.4077 26.5876 21.3663 26.4876 21.4008 26.398C21.9076 25.0982 23.2384 25.1671 23.2522 25.1671C23.3487 25.174 23.4177 25.2533 23.4142 25.3499C23.4073 25.443 23.3212 25.5154 23.2315 25.5119C23.1867 25.5119 22.1351 25.4636 21.7214 26.5221C21.6938 26.591 21.6283 26.6324 21.5594 26.6324Z" fill="#808B9A"/>
<path d="M29.7682 20.5642C29.7682 20.6607 29.8475 20.7366 29.9405 20.7366C30.0371 20.7366 30.1129 20.6607 30.1129 20.5642L30.1098 20.1896L30.8611 20.247H30.8749C30.9645 20.247 31.0404 20.1781 31.0473 20.0884C31.0542 19.9919 30.9852 19.9091 30.8887 19.9022L30.107 19.8425L30.0991 18.8989C30.0991 18.8024 30.0198 18.7266 29.9268 18.7266C29.8302 18.7266 29.7544 18.8024 29.7544 18.8989L29.763 19.9449C29.7584 19.9586 29.7555 19.9732 29.7544 19.9884C29.7526 20.014 29.7561 20.0387 29.764 20.0612L29.7682 20.5642Z" fill="#808B9A"/>
<path d="M21.7589 29.8422C21.7658 29.9352 21.8417 30.0042 21.9313 30.0042L21.9279 30.0008H21.9417C22.0347 29.9939 22.1071 29.9146 22.1002 29.818L22.0579 29.1985L22.1692 29.1975C22.2657 29.1975 22.3416 29.1216 22.3416 29.0251C22.3416 28.9286 22.2623 28.8562 22.1692 28.8527L21.9003 28.8553C21.888 28.8531 21.8753 28.8522 21.8623 28.8527C21.8546 28.8532 21.847 28.8543 21.8396 28.8559L20.7281 28.8665C20.6315 28.8665 20.5557 28.9423 20.5557 29.0389C20.5557 29.1354 20.635 29.2113 20.7281 29.2113L21.7151 29.2018L21.7589 29.8422Z" fill="#808B9A"/>
<mask id="mask0_1020_48146" style="mask-type:luminance" maskUnits="userSpaceOnUse" x="26" y="21" width="3" height="5">
<path d="M27.4376 25.4534C27.4376 25.4534 25.2173 22.9986 28.0134 21.354C28.0134 21.354 30.5475 23.5295 27.4376 25.4534Z" fill="white"/>
</mask>
<g mask="url(#mask0_1020_48146)">
<path d="M29.8406 23.257C29.8406 24.1844 29.089 24.9394 28.1581 24.9394C27.2272 24.9394 26.4756 24.1878 26.4756 23.257C26.4756 22.3261 27.2272 21.5745 28.1581 21.5745C29.089 21.5745 29.8406 22.3261 29.8406 23.257Z" fill="#808B9A"/>
</g>
<mask id="mask1_1020_48146" style="mask-type:luminance" maskUnits="userSpaceOnUse" x="21" y="26" width="5" height="3">
<path d="M21.5586 28.2046C21.5586 28.2046 24.6512 29.6561 25.2166 27.1358C25.2166 27.1358 22.8653 25.2844 21.5586 28.2046Z" fill="white"/>
</mask>
<g mask="url(#mask1_1020_48146)">
<path d="M23.8889 29.332C24.7477 29.332 25.4438 28.6359 25.4438 27.7771C25.4438 26.9183 24.7477 26.2222 23.8889 26.2222C23.0301 26.2222 22.334 26.9183 22.334 27.7771C22.334 28.6359 23.0301 29.332 23.8889 29.332Z" fill="#808B9A"/>
</g>
<path d="M22.2459 18.8989C19.7601 20.5986 19.0326 23.9394 20.3979 26.7149L20.5392 26.8838C22.07 25.915 22.3252 23.2016 22.3252 23.2016C22.7699 23.7981 23.225 25.0496 23.225 25.0496C23.6284 24.398 23.7663 23.3119 23.7663 23.3119C24.9868 25.6943 25.7074 19.1988 25.7074 19.1988C28.8207 21.6881 28.9552 19.2988 28.9586 18.954C26.921 17.6163 24.2835 17.5094 22.2459 18.9023V18.8989Z" fill="#808B9A"/>
<path d="M39.6328 38.9126C39.4809 42.1887 39.1391 46.408 39.1391 46.408V54.093C39.1391 54.093 34.002 55.8479 37.2532 62.24L36.7499 62.3537C36.0293 62.5192 35.5225 63.1571 35.5225 63.8949C35.5225 64.3707 35.9086 64.7568 36.3844 64.7568L60.8047 64.7809C60.8047 64.7809 60.8465 62.2444 60.3688 59.2183C61.1924 59.43 62.0795 59.3984 62.8733 59.0922C64.2765 58.5509 65.3212 57.1753 65.4798 55.6789C65.5005 55.4721 65.4695 55.2652 65.3902 55.0721C65.092 54.3447 64.5134 54.1551 64.0089 54.2842C65.3232 52.7117 65.6858 50.3396 64.7627 48.4904L62.9905 51.159C64.0973 49.0489 64.2731 46.4735 63.4663 44.2359C62.8733 42.5948 61.7597 41.1502 60.3392 40.1366C59.9945 39.8883 59.5635 40.3021 59.7841 40.6641C60.8392 42.3879 61.3322 44.46 61.1253 46.4735C60.8949 48.7186 59.8013 50.86 58.1417 52.3836C57.6467 51.5757 57.0598 50.871 56.364 50.3315C55.1646 49.4006 52.0609 42.0897 50.8494 38.9126H39.6328Z" fill="#FFC542"/>
<path d="M52.8052 64.8912H52.8086V64.8877C52.9017 64.8877 52.981 64.8119 52.981 64.7188C52.981 64.6257 52.9086 64.5429 52.8121 64.5429L51.0399 64.4947C51.0163 64.4932 50.9934 64.4911 50.9713 64.4886C50.9521 63.3943 51.7615 63.1255 51.8113 63.109L51.8122 63.1087C51.9053 63.0811 51.957 62.9846 51.9294 62.8949C51.9018 62.8018 51.8053 62.7501 51.7157 62.7777L51.7151 62.7779C51.6871 62.7869 50.6689 63.115 50.6295 64.3702C50.4959 64.2681 50.4366 64.1004 50.4366 63.8499C50.4366 63.1604 50.8503 62.5571 51.4916 62.3054L52.3811 61.9571C52.4328 61.9399 52.4707 61.8951 52.4845 61.8434C52.4983 61.7917 52.488 61.733 52.4535 61.6917C52.4535 61.6917 52.4521 61.6897 52.4505 61.6875C52.3493 61.5501 49.9062 58.231 51.6502 54.2273C52.2156 52.9344 52.9534 52.1621 53.8498 51.9346C55.1234 51.6136 56.3091 52.5134 56.3453 52.5408L56.346 52.5414C56.4184 52.6034 56.5287 52.5897 56.5873 52.5138C56.6459 52.438 56.6356 52.3311 56.5597 52.2725C56.5046 52.2276 55.222 51.2347 53.7705 51.6002C52.7638 51.8553 51.9467 52.6931 51.3364 54.0929C49.7229 57.7923 51.5329 60.9366 52.0536 61.7192L51.3675 61.9882C50.5917 62.2916 50.0918 63.0225 50.0918 63.8534C50.0918 64.4636 50.4124 64.805 51.0261 64.8429L52.8052 64.8912Z" fill="#808B9A"/>
<path d="M46.6755 64.8911C46.341 64.8911 46.0238 64.7463 45.8032 64.4946C45.5722 64.2291 45.4757 63.8809 45.5377 63.5361L45.6446 62.9396C45.7687 62.2191 45.8101 61.4847 45.7687 60.7538L45.2378 51.7276C45.2309 51.6311 45.3033 51.5518 45.3998 51.5449C45.4963 51.538 45.5756 51.6104 45.5825 51.7069L46.1135 60.7331C46.1583 61.4881 46.1135 62.2501 45.9859 62.9982L45.879 63.5947C45.8377 63.836 45.9032 64.0808 46.0652 64.267C46.117 64.3265 46.1758 64.3772 46.2399 64.4184C46.2088 63.5568 46.4172 63.003 46.4303 62.9681L46.4307 62.9672C46.4651 62.8776 46.5651 62.8328 46.6548 62.8707C46.7444 62.9052 46.7858 63.0052 46.7547 63.0948C46.7547 63.0953 46.7536 63.0989 46.7514 63.1054C46.7243 63.1873 46.5424 63.7368 46.5931 64.5421C46.6293 64.5459 46.666 64.5473 46.703 64.5463L47.3103 64.5253C47.2568 63.6028 47.482 63.0044 47.4957 62.9681L47.496 62.9672C47.5305 62.8776 47.627 62.8328 47.7201 62.8707C47.8098 62.9052 47.8511 63.0052 47.8201 63.0948C47.8201 63.0953 47.8189 63.0989 47.8168 63.1054C47.7899 63.1864 47.612 63.7237 47.6568 64.5134L47.8029 64.5083C48.6924 64.4773 49.3957 63.7292 49.3681 62.8362L49.0337 52.1482C49.0337 52.0517 49.1061 51.9724 49.1992 51.969C49.2854 51.9621 49.375 52.0414 49.3785 52.1344L49.7129 62.8224C49.7474 63.9016 48.8958 64.8118 47.8167 64.8497L46.7168 64.8876H46.6755V64.8911Z" fill="#808B9A"/>
<path d="M41.0759 64.8911C40.7414 64.8911 40.4242 64.7463 40.2036 64.4946C39.9726 64.2291 39.876 63.8809 39.9381 63.5361L40.045 62.9396C40.1691 62.2225 40.2105 61.4847 40.1691 60.7538L39.6381 51.7276C39.6313 51.6311 39.7037 51.5518 39.8002 51.5449C39.8933 51.538 39.976 51.6104 39.9829 51.7069L40.5173 60.7331C40.5621 61.4916 40.5173 62.2535 40.3898 62.9982L40.2829 63.5947C40.2415 63.836 40.307 64.0808 40.4691 64.267C40.5537 64.3642 40.659 64.438 40.7742 64.4852C40.7294 63.5855 40.9483 63.0038 40.9618 62.9681L40.9621 62.9672C40.9966 62.8776 41.0966 62.8328 41.1862 62.8707C41.2758 62.9052 41.3172 63.0052 41.2862 63.0948C41.2862 63.0953 41.285 63.0989 41.2828 63.1054C41.2557 63.1875 41.0733 63.7384 41.1248 64.5457L41.8414 64.5209C41.7889 63.6009 42.0135 63.0043 42.0271 62.9681L42.0274 62.9672C42.0619 62.8776 42.1584 62.8328 42.2515 62.8707C42.3412 62.9052 42.3825 63.0052 42.3515 63.0948C42.3515 63.0953 42.3503 63.0989 42.3482 63.1054C42.3214 63.1862 42.1441 63.7217 42.1879 64.509L42.2067 64.5083C43.0962 64.4773 43.7996 63.7292 43.772 62.8362L43.4376 52.1482C43.4376 52.0517 43.51 51.9724 43.603 51.969C43.6892 51.9621 43.7789 52.0414 43.7823 52.1344L44.1168 62.8224C44.1512 63.9016 43.2996 64.8118 42.2205 64.8497L42.0561 64.8554C42.0523 64.8559 42.0485 64.8563 42.0447 64.8566H42.0274C42.0256 64.8566 42.0239 64.8566 42.0221 64.8565L41.1207 64.8876H41.0793L41.0759 64.8911Z" fill="#808B9A"/>
<path d="M60.4147 59.7127C60.325 59.7127 60.2492 59.6437 60.2423 59.5541C59.8665 54.4446 57.7978 52.1587 57.7771 52.138C57.7116 52.0691 57.7151 51.9587 57.7875 51.8932C57.8564 51.8277 57.9668 51.8312 58.0323 51.9001C58.1219 51.9967 60.2043 54.286 60.5905 59.5265C60.5974 59.6231 60.525 59.7058 60.4319 59.7127C60.4285 59.7127 60.4216 59.7127 60.4181 59.7127H60.4147Z" fill="#808B9A"/>
<path d="M35.9297 29.3651C35.9139 31.1868 39.9006 32.695 44.828 32.7364C49.759 32.7782 53.7683 31.3364 53.7841 29.5146C53.7999 27.6929 49.8132 26.1847 44.8858 26.1433C39.9548 26.1015 35.9455 27.5433 35.9297 29.3651Z" fill="#B3BECD"/>
<path d="M46.8251 29.2736C46.8251 29.2736 47.1194 26.351 46.331 25.6478C45.5426 24.9446 44.7096 27.642 44.2358 28.5347L46.8288 29.274L46.8251 29.2736Z" fill="#FFC542"/>
<path d="M45.9455 28.5972C45.9455 28.5972 45.9455 28.5972 45.9418 28.5968C45.8648 28.588 45.8138 28.5153 45.8263 28.4387C46.0052 27.267 45.7539 26.1872 45.7478 26.1753C45.7302 26.1027 45.7761 26.0263 45.8486 26.0086C45.9249 25.9914 45.9977 26.0369 46.0154 26.1094C46.025 26.1551 46.2856 27.2509 46.0963 28.4808C46.0878 28.5541 46.0188 28.6056 45.9455 28.5972Z" fill="#808B9A"/>
<path d="M48.8844 39.4966C48.8844 39.4966 50.9905 37.3241 50.6328 34.7761L51.5808 33.8932C51.9258 33.5725 52.1531 33.1455 52.2215 32.678C52.3972 31.5022 52.6041 29.2121 51.8429 28.0775C50.7898 26.5083 49.8687 30.0387 49.5003 30.7578C49.5003 30.7578 48.725 29.3244 46.1975 28.6298C43.6699 27.9351 42.4572 28.6651 42.4572 28.6651C42.4572 28.6651 39.9738 27.0024 38.4975 27.6019C37.0248 28.2019 36.2052 32.3046 38.4441 33.9615C39.081 34.432 39.2038 38.316 39.5078 38.6777C39.8113 39.043 48.8808 39.4962 48.8808 39.4962L48.8844 39.4966Z" fill="#FFC542"/>
<path d="M38.9121 31.4082C38.6261 31.3754 38.3135 31.2838 38.0963 31.0732C37.8656 30.8499 37.775 30.5387 37.8277 30.1437C37.9516 29.2257 38.1027 28.6525 38.2539 28.5324C38.3352 28.4712 38.4493 28.4805 38.5142 28.5622C38.5791 28.644 38.5661 28.7576 38.4843 28.8225C38.4917 28.8233 38.3458 29.0592 38.1935 30.193C38.1583 30.4675 38.2093 30.6702 38.3531 30.8093C38.6641 31.1086 39.3558 31.0691 39.5943 31.0296C39.6966 31.0116 39.7889 31.0816 39.8073 31.1803C39.8256 31.279 39.7589 31.3753 39.6566 31.3933C39.6337 31.3981 39.2933 31.4519 38.9121 31.4082Z" fill="#808B9A"/>
<path d="M50.1446 32.269C50.0603 32.2593 49.9901 32.1919 49.9818 32.1018C49.9712 32.0003 50.0448 31.9085 50.1459 31.9015C50.4577 31.8704 50.6876 31.7445 50.8481 31.5103C51.4129 30.6986 50.9517 28.9559 50.9501 28.9371C50.9244 28.8376 50.9805 28.7363 51.0801 28.7106C51.1796 28.6849 51.2808 28.7411 51.3066 28.8406C51.3275 28.9172 51.8136 30.7668 51.1546 31.72C50.9318 32.0436 50.6024 32.2286 50.1817 32.2695C50.167 32.2679 50.1556 32.2703 50.141 32.2686L50.1446 32.269Z" fill="#808B9A"/>
<path d="M37.4812 30.7353C37.4812 30.7353 37.4702 30.734 37.4665 30.7336C37.0975 30.6801 36.9487 30.132 36.9201 30.0247C36.8944 29.9252 36.9579 29.8248 37.057 29.8027C37.1565 29.777 37.257 29.8405 37.279 29.9396C37.3296 30.146 37.4499 30.3603 37.5191 30.3719C37.5485 30.3753 37.6505 30.3276 37.8071 30.0633C37.8579 29.9763 37.9725 29.9485 38.0595 29.9994C38.1465 30.0502 38.1779 30.1652 38.1234 30.2518C38.0451 30.384 37.8143 30.7772 37.4771 30.7385L37.4812 30.7353Z" fill="#808B9A"/>
<path d="M44.0741 30.1727C44.1644 29.7745 44.3618 29.4777 44.5104 29.5096C44.6586 29.5452 44.7075 29.8962 44.6173 30.2944C44.527 30.6926 44.3296 30.9893 44.181 30.9574C44.0324 30.9255 43.9839 30.5708 44.0741 30.1727Z" fill="#808B9A"/>
<path d="M39.9366 27.5514C39.4293 27.4413 38.9221 27.4277 38.4977 27.5981C38.3186 27.6704 38.1519 27.7962 37.9956 27.9602L38.285 28.6434C38.285 28.6434 39.9391 28.6956 40.2679 28.4845C40.4725 28.352 40.2662 27.9161 39.9371 27.5478L39.9366 27.5514Z" fill="#808B9A"/>
<path d="M50.5123 38.3238L51.1331 39.1935L39.0422 39.664L39.2314 38.4675L50.5123 38.3238Z" fill="#808B9A"/>
<path d="M45.8624 32.6842C38.6296 32.8612 37.642 31.0767 36.0424 29.9982L39.2345 38.4681L50.1287 38.3284L53.4908 30.3204C52.1037 31.5986 50.0633 32.5828 45.8624 32.6842Z" fill="white"/>
<path d="M41.7067 49.6785L43.5734 48.0769H43.5763C43.8555 47.8804 46.593 45.5842 47.1895 43.0432C47.3019 42.5656 47.4011 42.1551 47.4865 41.8022L47.4866 41.8016C47.6525 41.1156 47.7658 40.6474 47.8204 40.3264C47.8756 40.0023 47.6756 39.6265 47.355 39.4507C47.209 39.3703 47.0583 39.3469 46.9286 39.3745C47.0443 38.9505 47.1224 38.6466 47.1585 38.4233C47.1998 38.1578 46.9585 37.8027 46.6965 37.6579C46.3483 37.4648 45.9793 37.5441 45.8311 37.844C45.7797 37.9486 45.7217 38.0659 45.6584 38.1932C45.7397 37.5443 45.7882 37.1104 45.7966 36.8235C45.8035 36.5546 45.5346 36.296 45.2588 36.2443C45.1375 36.2226 45.0192 36.2293 44.9115 36.2603C44.8713 36.085 44.73 35.912 44.5658 35.8478C44.1969 35.703 43.8038 35.8271 43.6245 36.1478C43.0005 37.2717 41.5731 39.7955 40.8491 40.7229C40.8207 40.7593 40.7941 40.7966 40.7692 40.835C40.7611 40.8455 40.7533 40.8564 40.7457 40.8677C40.5849 41.1066 40.4256 41.3474 40.2719 41.5828C40.35 40.5991 40.3889 39.3412 40.1389 38.8749C39.9458 38.5163 39.3976 38.0992 38.9529 38.4439C38.6861 38.653 38.4544 39.8952 38.2964 40.7428C38.2563 40.9577 38.2209 41.1475 38.1909 41.2883C37.8495 42.9129 37.4223 43.9894 37.0888 44.8298C36.8094 45.534 36.5957 46.0725 36.5532 46.6289C36.4821 47.5678 34.7445 49.0167 34.6861 49.0652L34.6846 49.063V49.0664L34.6861 49.0652C36.3485 51.4969 39.9286 51.204 39.9286 51.204L41.6754 49.7053L41.6766 49.7077L41.7067 49.6785Z" fill="#FFC192"/>
<path d="M41.6356 43.4085C41.6045 43.4085 41.5735 43.3982 41.5459 43.374C41.4942 43.3258 41.4908 43.243 41.539 43.1913C41.5563 43.1741 43.1801 41.4226 43.9662 39.0333L44.0352 38.823C44.4661 37.5163 44.7006 36.7992 44.7868 36.4096C44.8006 36.3407 44.8695 36.2958 44.9419 36.3096C45.0109 36.3234 45.0557 36.3924 45.0419 36.4648C44.9557 36.8647 44.7178 37.5887 44.2834 38.9023L44.2145 39.1126C43.4111 41.5571 41.7493 43.3499 41.7321 43.3671C41.708 43.3947 41.6735 43.4085 41.639 43.4085H41.6356Z" fill="#808B9A"/>
<path d="M43.0563 44.4156C43.0287 44.4156 42.9977 44.4052 42.9735 44.388C42.9184 44.3432 42.908 44.2604 42.9529 44.2053C42.9666 44.1915 44.163 42.6848 44.9732 40.2749L45.056 40.0301C45.4904 38.7372 45.7317 38.0235 45.8179 37.6373C45.8352 37.5684 45.9007 37.5236 45.9731 37.5408C46.042 37.558 46.0868 37.627 46.0696 37.696C45.98 38.0959 45.7386 38.813 45.3008 40.1128L45.218 40.3576C44.3906 42.8124 43.1666 44.3501 43.1528 44.3673C43.1287 44.3983 43.0908 44.4156 43.0528 44.4156H43.0563Z" fill="#808B9A"/>
<path d="M44.3179 45.4566C44.2765 45.4566 44.2386 45.4393 44.2145 45.4014C44.1731 45.3428 44.1869 45.2635 44.2421 45.2221C44.2524 45.2152 45.135 44.5498 45.997 42.0743L46.0935 41.7985C46.5589 40.4642 46.8141 39.7299 46.9106 39.3334C46.9279 39.2644 46.9968 39.2196 47.0658 39.2369C47.1347 39.2541 47.1795 39.323 47.1623 39.392C47.0658 39.8023 46.8072 40.5435 46.3383 41.8813L46.2418 42.1571C45.3453 44.7256 44.4317 45.4014 44.3938 45.429C44.3696 45.4462 44.3455 45.4531 44.3179 45.4531V45.4566Z" fill="#808B9A"/>
<path d="M38.4808 44.0809C38.4532 44.0809 38.4257 44.074 38.4015 44.0534C38.3429 44.012 38.3326 43.9292 38.3774 43.8706L40.1702 41.5055C40.2116 41.4503 40.2943 41.4365 40.353 41.4814C40.4081 41.5227 40.4219 41.6055 40.3771 41.6641L38.5843 44.0292C38.5601 44.0637 38.5188 44.0809 38.4808 44.0809Z" fill="#808B9A"/>
<path d="M26.1034 66.0119L41.2355 53.2553L35.3675 46.615L18.5908 59.1199L26.1034 66.0119Z" fill="#DCF0FF"/>
<path d="M26.1035 53.7517C26.0828 53.7517 26.0656 53.7517 26.0449 53.7414C25.9552 53.7104 25.9104 53.6104 25.9414 53.5207L27.8446 48.2181C27.8756 48.1285 27.9756 48.0802 28.0652 48.1147C28.1549 48.1457 28.1997 48.2457 28.1687 48.3353L26.2655 53.638C26.2414 53.7069 26.1724 53.7517 26.1035 53.7517Z" fill="#808B9A"/>
<path d="M21.1118 57.1308C21.0877 57.1308 21.0601 57.1239 21.0359 57.1135L19.0294 56.1344C18.9432 56.093 18.9087 55.9896 18.9501 55.9034C18.9914 55.8172 19.0949 55.7827 19.1811 55.8241L21.1876 56.8033C21.2738 56.8446 21.3083 56.9481 21.2669 57.0342C21.2359 57.0963 21.1773 57.1308 21.1118 57.1308Z" fill="#808B9A"/>
<path d="M26.3111 44.7291C26.2594 44.7291 26.2077 44.705 26.1732 44.6602L21.3361 38.0715C21.2809 37.9957 21.2947 37.8854 21.374 37.8302C21.4498 37.775 21.5567 37.7888 21.6153 37.8681L26.4525 44.4567C26.5077 44.5326 26.4939 44.6429 26.4146 44.6981C26.3835 44.7222 26.3491 44.7326 26.3111 44.7326V44.7291Z" fill="#808B9A"/>
<path d="M18.7325 59.2529C18.7159 59.2407 18.702 59.2304 18.6915 59.2098C18.6377 59.1317 18.661 59.0246 18.7391 58.9708L32.9606 48.2274C33.0388 48.1736 33.1479 48.1941 33.1996 48.275C33.2534 48.3532 33.2301 48.4602 33.152 48.514L18.9305 59.2575C18.8702 59.2987 18.7881 59.2938 18.7325 59.2529Z" fill="#808B9A"/>
<path d="M87.1421 64.7915H0.321289V66.6498H87.1421V64.7915Z" fill="#808B9A"/>
<path d="M6.87207 66.15L6.87207 130.905H8.7304L8.7304 66.15H6.87207Z" fill="#808B9A"/>
<path d="M78.374 66.15V130.905H80.2324V66.15H78.374Z" fill="#808B9A"/>
</g>
<defs>
<clipPath id="clip0_1020_48146">
<rect width="87.6522" height="131.122" fill="white" transform="translate(0.163086 0.0476074)"/>
</clipPath>
</defs>
</svg>
