<svg width="54" height="54" viewBox="0 0 54 54" fill="none" xmlns="http://www.w3.org/2000/svg">
<g filter="url(#filter0_b_1028_35786)">
<rect width="54" height="54" rx="8" fill="#DCF0FF" fill-opacity="0.3"/>
<rect x="0.5" y="0.5" width="53" height="53" rx="7.5" stroke="#DCF0FF"/>
<g clip-path="url(#clip0_1028_35786)">
<path d="M28.0234 27.0256V36.6531C28.0234 37.5481 27.6878 38.3835 27.1219 38.9998C26.4753 39.7045 25.5465 40.1668 24.5043 40.1668H12.592C10.6392 40.1668 9 38.5726 9 36.6531V27.0256C9 25.8019 9.67175 24.7435 10.6444 24.1242C11.1972 23.7726 11.8841 23.5861 12.592 23.5861H24.5041C26.4569 23.5861 28.0232 25.1061 28.0232 27.0256H28.0234Z" fill="#D6BCFA"/>
<path d="M27.1301 38.9999C26.4835 39.7046 25.5465 40.1668 24.5041 40.1668H24.0104V43.5448C24.0104 43.7269 23.9097 43.8905 23.7388 43.9604C23.5671 44.0303 23.3756 44.0107 23.2449 43.882L19.451 40.1668H12.592C10.6392 40.1668 9 38.5726 9 36.6531V27.0257C9 25.802 9.67175 24.7255 10.6444 24.1062C10.5733 25.8302 10.9186 28.4472 13.3532 29.485C13.4252 29.5156 13.5047 29.5445 13.5804 29.5719C13.9707 29.7162 14.4151 29.8218 14.912 29.8798C15.0579 29.8968 15.2033 29.914 15.3449 29.931C15.9801 30.0075 16.5777 30.0856 17.1375 30.1695C18.1322 30.3189 19.0084 30.4855 19.7752 30.6915C20.3487 30.8454 20.86 31.0223 21.3139 31.2305C22.788 31.9048 23.654 32.9216 24.0316 34.5811C24.5627 36.9176 25.4294 38.3561 27.1304 38.9999H27.1301Z" fill="#A461D8"/>
<path fill-rule="evenodd" clip-rule="evenodd" d="M17.7686 26.3617H19.3291V27.9684H23.7139V29.5754H21.8734C21.7023 30.2563 21.3568 31.329 20.6943 32.4733C20.4287 32.9321 20.0971 33.4259 19.6865 33.92C20.7243 34.8094 21.9782 35.4242 23.4374 35.7565L23.0695 37.3172C21.1295 36.8753 19.6627 36.0298 18.562 35.0718C17.4612 36.0298 15.9944 36.8753 14.0544 37.3172L13.6865 35.7565C15.1457 35.4242 16.3996 34.8094 17.4374 33.92C17.0268 33.4259 16.6952 32.9321 16.4296 32.4733C15.7671 31.3289 15.4216 30.2563 15.2504 29.5754H13.3848V27.9684H17.7686V26.3617ZM16.9393 29.5754H20.1845C20.0131 30.1488 19.7232 30.9232 19.2484 31.7316C19.0376 32.0904 18.8088 32.4273 18.562 32.7421C18.3151 32.4273 18.0863 32.0904 17.8755 31.7316C17.4007 30.9232 17.1107 30.1488 16.9393 29.5754Z" fill="white"/>
<path d="M43.9996 13.495V23.1225C43.9996 24.0927 43.5944 24.9612 42.9425 25.5918C42.3041 26.2087 41.4285 26.5807 40.4626 26.5807H28.5505C26.5977 26.5807 25.0508 25.0419 25.0508 23.1225V13.495C25.0508 12.3346 25.6112 11.2974 26.5 10.6662C27.0816 10.2528 27.7782 10 28.5505 10H40.4626C42.4154 10 43.9996 11.5755 43.9996 13.495Z" fill="#96D3FF"/>
<path d="M42.9419 25.5918C42.3034 26.2087 41.4285 26.5807 40.4626 26.5807H33.6368L29.8045 30.3564C29.6737 30.4849 29.46 30.5281 29.2883 30.4582C29.1174 30.3891 28.9892 30.2292 28.9892 30.0469V26.5807H28.5505C26.5977 26.5807 25.0508 25.042 25.0508 23.1225V13.495C25.0508 12.3346 25.6112 11.307 26.5 10.676C26.4062 12.71 26.8525 16.0436 30.7317 16.4978C31.0615 16.5365 31.3762 16.5751 31.6855 16.6145C32.4109 16.7058 33.0794 16.8018 33.6997 16.9081C34.3388 17.0173 34.923 17.1377 35.4562 17.276C36.4546 17.5348 37.2724 17.8575 37.9267 18.2901C38.9198 18.9472 39.5367 19.8543 39.8392 21.1851C40.3709 23.524 41.2389 24.9485 42.9423 25.5916L42.9419 25.5918Z" fill="#50B5FF"/>
<path d="M37.9259 18.3185L35.8708 12.5564H33.1285L31.6808 16.6427L29.3945 23.0746H31.8109L32.5786 20.4451H36.4352L37.202 23.0746H39.6193L37.9259 18.3185ZM33.1428 18.692C33.35 18.0347 33.5346 17.4364 33.6972 16.9123C34.1238 15.5339 34.3953 14.6225 34.5103 14.1831C34.5489 14.3533 34.6131 14.5851 34.7024 14.8787C34.7711 15.1047 35.0216 15.9076 35.455 17.2809C35.5866 17.6973 35.7349 18.1808 35.8998 18.692H33.143H33.1428Z" fill="white"/>
</g>
</g>
<defs>
<filter id="filter0_b_1028_35786" x="-54" y="-54" width="162" height="162" filterUnits="userSpaceOnUse" color-interpolation-filters="sRGB">
<feFlood flood-opacity="0" result="BackgroundImageFix"/>
<feGaussianBlur in="BackgroundImageFix" stdDeviation="27"/>
<feComposite in2="SourceAlpha" operator="in" result="effect1_backgroundBlur_1028_35786"/>
<feBlend mode="normal" in="SourceGraphic" in2="effect1_backgroundBlur_1028_35786" result="shape"/>
</filter>
<clipPath id="clip0_1028_35786">
<rect width="35" height="34" fill="white" transform="translate(9 10)"/>
</clipPath>
</defs>
</svg>
