<svg width="54" height="54" viewBox="0 0 54 54" fill="none" xmlns="http://www.w3.org/2000/svg">
<g filter="url(#filter0_b_1378_19219)">
<rect width="54" height="54" rx="8" fill="#FFEEC6" fill-opacity="0.3"/>
<rect x="0.5" y="0.5" width="53" height="53" rx="7.5" stroke="#FFEEC6"/>
<path d="M12.6883 39.8117C11.7942 39.5512 11.1068 39.2638 10.666 38.9575C11.2063 39.3911 11.8915 39.7005 12.6883 39.8117Z" fill="#FFD67B"/>
<path d="M40.4609 39.8038C41.1734 39.6962 41.7954 39.4303 42.3016 39.0586C41.8662 39.324 41.2434 39.5742 40.4609 39.8038Z" fill="#FFC542"/>
<path d="M27.8588 11.3503C27.8588 11.3503 27.8561 11.3494 27.8543 11.3489C27.7346 11.2911 27.6104 11.2422 27.4826 11.2009C27.1902 11.1063 26.8786 11.0557 26.5553 11.0557C24.8828 11.0557 23.5215 12.4161 23.5215 14.0895C23.5215 15.4351 24.4021 16.578 25.6159 16.9744C25.8939 17.0654 26.1885 17.1166 26.4952 17.1224C26.5145 17.1233 26.5351 17.1233 26.5553 17.1233C28.2282 17.1233 29.5896 15.7629 29.5896 14.0895C29.5896 12.8829 28.8815 11.8381 27.8588 11.3503ZM26.7629 15.5158C26.6952 15.5261 26.6257 15.5311 26.5548 15.5311C26.4351 15.5311 26.319 15.5167 26.2069 15.4885C25.5796 15.3324 25.1142 14.7643 25.1142 14.0895C25.1142 13.2949 25.7603 12.6479 26.5548 12.6479C26.7925 12.6479 27.0162 12.7057 27.2131 12.808C27.2297 12.816 27.2463 12.8246 27.262 12.8349C27.262 12.8349 27.2624 12.8349 27.2633 12.8349C27.8633 12.9837 28.322 13.5119 28.3547 14.1608C28.3924 14.8939 27.8718 15.5284 27.166 15.6521C27.023 15.627 26.8876 15.5799 26.7625 15.5158H26.7629Z" fill="#FFEEC6"/>
<path d="M27.2643 12.8348C27.8642 12.9836 28.3229 13.5118 28.3557 14.1606C28.3933 14.8938 27.8728 15.5282 27.167 15.652C27.2733 15.6713 27.3827 15.6789 27.4948 15.6731C28.2889 15.6327 28.9014 14.9547 28.861 14.1611C28.8211 13.3679 28.1427 12.7545 27.3495 12.7949C27.3033 12.7971 27.2585 12.8011 27.2136 12.8088C27.1993 12.8101 27.1854 12.8123 27.1719 12.8159C27.2029 12.8209 27.2334 12.8276 27.2629 12.8352C27.2629 12.8352 27.2634 12.8352 27.2643 12.8352V12.8348Z" fill="#FFC542"/>
<path d="M29.5898 14.0893C29.5898 12.8827 28.8818 11.838 27.859 11.3501C27.8577 11.3492 27.8563 11.3492 27.8545 11.3488C27.7348 11.2909 27.6106 11.2421 27.4828 11.2008C27.4115 11.1986 27.3407 11.1999 27.2685 11.2035C27.2362 11.2048 27.2035 11.2071 27.1712 11.2107C25.548 11.3434 24.3087 12.7482 24.3916 14.3866C24.4566 15.6816 25.3292 16.7474 26.4955 17.1223C26.5148 17.1231 26.5354 17.1231 26.5556 17.1231C28.2285 17.1231 29.5898 15.7627 29.5898 14.0893ZM25.4772 14.3068C25.4373 13.5127 26.0502 12.8352 26.8443 12.7948C26.9564 12.789 27.0658 12.7962 27.1721 12.8159C27.186 12.8123 27.1994 12.8101 27.2138 12.8087C27.2586 12.8016 27.3035 12.7971 27.3497 12.7948C28.1429 12.7545 28.8213 13.3679 28.8612 14.1611C28.9015 14.9552 28.2886 15.6327 27.4949 15.6731C27.3828 15.6789 27.2734 15.6717 27.1672 15.652C27.0241 15.6269 26.8887 15.5798 26.7636 15.5157C26.6959 15.526 26.6264 15.5309 26.5556 15.5309C26.4358 15.5309 26.3197 15.5166 26.2076 15.4883C25.7933 15.2529 25.5032 14.8171 25.4772 14.3068Z" fill="#FFD67B"/>
<path d="M12.0619 36.7113C11.9409 35.6849 12.2386 34.5917 13.0748 33.7425L14.7003 32.0915C15.2661 31.5167 15.5979 30.7342 15.6262 29.9083L15.8159 24.359C15.8159 18.1291 20.6239 13.0789 26.5553 13.0789C19.5196 13.0789 13.8156 18.1291 13.8156 24.359L13.5909 29.9083C13.5573 30.7342 13.1636 31.5171 12.4928 32.0915L10.5647 33.7425C8.91915 35.1513 9.0308 37.2301 10.2522 38.564C10.1594 38.4322 10.111 38.2977 10.111 38.1614C10.111 37.6368 10.8176 37.1435 12.0619 36.7117V36.7113Z" fill="#FFD67B"/>
<path d="M37.2956 24.359L37.4853 29.9083C37.5135 30.7342 37.8453 31.5171 38.4112 32.0915L40.0366 33.7425C40.8706 34.5899 41.1692 35.6791 41.0509 36.7032C42.31 37.1368 43.0251 37.6336 43.0251 38.1609C43.0251 38.2658 42.9969 38.3689 42.9417 38.4712C44.0856 37.135 44.1551 35.119 42.5471 33.742L40.6191 32.091C39.9478 31.5162 39.5541 30.7338 39.521 29.9078L39.2963 24.3585C39.2963 18.1286 33.5928 13.0784 26.5566 13.0784C32.488 13.0784 37.296 18.1286 37.296 24.3585L37.2956 24.359Z" fill="#FFC542"/>
<path d="M15.816 24.359L15.6263 29.9083C15.598 30.7342 15.2662 31.5171 14.7004 32.0915L13.0749 33.7425C12.2387 34.5917 11.941 35.6849 12.062 36.7112C13.0028 36.3848 14.2511 36.0938 15.7352 35.8517C15.7998 35.0993 16.041 34.3568 16.493 33.742L17.7064 32.091C18.1288 31.5162 18.3763 30.7338 18.3973 29.9078L18.539 24.3585C18.539 18.1286 22.1284 13.0784 26.5558 13.0784C20.6245 13.0784 15.8164 18.1286 15.8164 24.3585L15.816 24.359Z" fill="#FFEEC6"/>
<path d="M34.5724 24.359L34.7141 29.9083C34.7352 30.7342 34.9827 31.5171 35.4051 32.0915L36.6184 33.7425C37.0695 34.3563 37.3103 35.0971 37.3758 35.8481C38.8582 36.0889 40.1069 36.3786 41.0503 36.7032C41.1687 35.6791 40.8705 34.5895 40.0361 33.7425L38.4107 32.0915C37.8448 31.5167 37.513 30.7342 37.4847 29.9083L37.2951 24.359C37.2951 18.1291 32.487 13.0789 26.5557 13.0789C30.9831 13.0789 34.5724 18.1291 34.5724 24.359Z" fill="#FFD67B"/>
<path d="M42.9416 38.471C42.9967 38.3688 43.025 38.2657 43.025 38.1607C43.025 37.633 42.3098 37.1366 41.0507 36.703C40.1073 36.3779 38.8586 36.0887 37.3762 35.8479C34.4849 35.378 30.705 35.0938 26.5682 35.0938C22.4313 35.0938 18.6303 35.3798 15.7355 35.852C14.2518 36.0941 13.003 36.3851 12.0623 36.7115C10.818 37.1433 10.1113 37.637 10.1113 38.1612C10.1113 38.298 10.1598 38.432 10.2526 38.5638C10.3472 38.6979 10.4884 38.8293 10.6727 38.9575C11.1135 39.2638 11.8009 39.5512 12.695 39.8117C15.6189 40.6637 20.7395 41.2286 26.5682 41.2286C32.3968 41.2286 37.5479 40.6605 40.4674 39.8041C41.2498 39.5745 41.8726 39.3243 42.308 39.0589C42.6174 38.8701 42.8326 38.6737 42.9416 38.4715V38.471Z" fill="#FFC542"/>
<path d="M41.2837 38.471C41.333 38.3688 41.3586 38.2657 41.3586 38.1607C41.3586 37.633 40.716 37.1366 39.5843 36.703C38.7364 36.3779 37.6141 36.0887 36.2819 35.8479C33.6835 35.378 30.286 35.0938 26.568 35.0938C22.8499 35.0938 19.4336 35.3798 16.8321 35.852C15.4985 36.0941 14.3762 36.3851 13.531 36.7115C12.4127 37.1433 11.7773 37.637 11.7773 38.1612C11.7773 38.298 11.8208 38.432 11.9042 38.5638C11.989 38.6979 12.1163 38.8293 12.2818 38.9575C12.6777 39.2638 13.2956 39.5512 14.0991 39.8117C16.7271 40.6637 21.329 41.2286 26.5675 41.2286C31.8061 41.2286 36.4357 40.6605 39.0597 39.8041C39.7628 39.5745 40.3228 39.3243 40.7138 39.0589C40.9918 38.8701 41.185 38.6737 41.2832 38.4715L41.2837 38.471Z" fill="#E6B13B"/>
<path d="M26.5546 42.5999C29.2652 42.5999 31.4627 40.4024 31.4627 37.6918C31.4627 34.9811 29.2652 32.7837 26.5546 32.7837C23.8439 32.7837 21.6465 34.9811 21.6465 37.6918C21.6465 40.4024 23.8439 42.5999 26.5546 42.5999Z" fill="#FFC542"/>
<path d="M18.5391 24.359L18.3974 29.9083C18.3764 30.7342 18.1289 31.5171 17.7065 32.0915L16.4931 33.7425C16.0412 34.3572 15.8004 35.0998 15.7354 35.8522C18.6297 35.38 22.4195 35.0939 26.568 35.0939C30.7165 35.0939 34.4848 35.3787 37.376 35.8481C37.311 35.0971 37.0698 34.3563 36.6187 33.7425L35.4054 32.0915C34.983 31.5167 34.7355 30.7342 34.7144 29.9083L34.5727 24.359C34.5727 18.1291 30.9833 13.0789 26.5559 13.0789C22.1285 13.0789 18.5391 18.1291 18.5391 24.359Z" fill="#FFD67B"/>
<path d="M36.0218 23.8248C39.142 23.8248 41.6715 21.2954 41.6715 18.1751C41.6715 15.0549 39.142 12.5254 36.0218 12.5254C32.9015 12.5254 30.3721 15.0549 30.3721 18.1751C30.3721 21.2954 32.9015 23.8248 36.0218 23.8248Z" fill="#FC5A5A"/>
<path d="M35.25 15.2798H36.7974V16.468L36.4988 18.8548H35.5419L35.25 16.468V15.2798ZM35.3034 19.2176H36.7476V20.4946H35.3034V19.2176Z" fill="white"/>
</g>
<defs>
<filter id="filter0_b_1378_19219" x="-54" y="-54" width="162" height="162" filterUnits="userSpaceOnUse" color-interpolation-filters="sRGB">
<feFlood flood-opacity="0" result="BackgroundImageFix"/>
<feGaussianBlur in="BackgroundImageFix" stdDeviation="27"/>
<feComposite in2="SourceAlpha" operator="in" result="effect1_backgroundBlur_1378_19219"/>
<feBlend mode="normal" in="SourceGraphic" in2="effect1_backgroundBlur_1378_19219" result="shape"/>
</filter>
</defs>
</svg>
