<svg width="65" height="76" viewBox="0 0 65 76" fill="none" xmlns="http://www.w3.org/2000/svg">
<g clip-path="url(#clip0_1020_48411)">
<ellipse cx="31.9678" cy="42.3914" rx="26.087" ry="13.913" fill="#808B9A"/>
<path d="M6.0691 47.7841C11.4476 52.0194 21.1397 54.9132 31.9324 54.9132C43.404 54.9132 53.6235 51.6436 58.7504 46.9703C58.6604 46.7983 58.6118 46.6017 58.6246 46.3921C58.8376 42.9432 54.4568 42.2379 54.2696 42.2089C53.8236 42.141 53.4663 41.8028 53.3691 41.3576C53.1261 40.2286 52.6616 39.4987 51.9512 39.1301C51.0293 38.6502 49.8559 38.8453 49.1598 39.0347C49.1684 39.0549 49.1769 39.0795 49.1798 39.0882C47.1351 37.025 45.9712 37.9949 45.7438 37.7728C42.3288 35.8325 40.7267 35.435 35.2412 33.9524C34.1564 33.1097 32.6184 32.5474 30.0385 32.6688C25.9607 32.8625 24.0941 35.0784 23.4623 36.0599C21.5014 35.435 22.8232 38.6132 21.9587 37.6456C21.8786 37.5588 19.8662 35.4094 16.7431 36.5412C13.6387 37.6615 13.8388 40.6305 13.8502 40.7562C13.8831 41.1754 13.6773 41.5773 13.3185 41.7912C12.9598 42.0051 12.5124 41.9921 12.1651 41.758C12.0607 41.6886 9.48943 40.0176 7.65563 41.6654C5.17721 43.8929 6.00621 47.4502 6.04337 47.6006C6.05767 47.6627 6.06481 47.7249 6.0691 47.7856V47.7841Z" fill="#FFEEC6"/>
<path fill-rule="evenodd" clip-rule="evenodd" d="M53.1325 31.6C53.8083 32.041 54.4566 32.5073 55.0696 33.0045C60.8268 37.6769 63.7451 44.8695 63.7451 54.384C63.7451 66.0087 50.492 74.445 32.2315 74.445C13.9709 74.445 0.716797 66.0076 0.716797 54.384C0.716797 44.8585 3.62186 37.6659 9.35481 33.0034C14.6501 28.6949 22.3477 26.5109 32.2337 26.5109C35.5136 26.5109 38.5477 26.7589 41.3403 27.2418C41.432 27.2654 41.5304 27.2906 41.6347 27.3172C43.9234 27.9025 47.2715 28.4784 50.0542 29.8697C51.7933 30.7393 52.1411 30.9132 53.1325 31.6ZM50.7402 32.7768L47.9672 31.6089C46.9237 31.261 45.6474 30.8141 43.7933 30.2176C42.7314 29.8759 41.191 29.5712 40.3304 29.3575C37.7991 28.9275 35.0792 28.6927 32.2315 28.6927C18.1858 28.6927 7.1829 34.3319 7.1829 41.529C7.1829 48.726 18.1858 54.3642 32.2315 54.3642C46.2772 54.3642 57.279 48.726 57.279 41.529C57.279 38.1179 55.6194 36.1306 52.1411 33.6958C51.7933 33.348 50.7303 32.7785 50.7402 32.7768ZM32.2309 70.2918C32.1588 70.2747 26.1193 67.9728 26.1193 63.6846C26.1193 62.7299 26.5063 61.8358 27.1865 61.1654C27.8667 60.4962 28.7675 60.1313 29.7222 60.139C30.6726 60.1467 31.5623 60.5227 32.2315 61.1963C32.8996 60.5216 33.7904 60.1467 34.7397 60.139C35.6944 60.1313 36.5951 60.4951 37.2754 61.1654C37.9556 61.8347 38.3426 62.7299 38.3426 63.6846C38.3426 67.9717 32.303 70.2747 32.2309 70.2918Z" fill="#FF974A"/>
<path d="M40.9852 57.9561C40.9951 57.8249 41.0971 57.7084 41.2384 57.6881C55.0363 55.9002 60.493 46.2765 60.5469 46.1797C60.6275 46.0383 60.802 45.9894 60.944 46.0623C61.0859 46.1351 61.1342 46.3173 61.0614 46.4593C61.0075 46.5561 55.4222 56.4418 41.3192 58.2609C41.1625 58.28 41.0157 58.168 40.9965 58.0113C40.9983 57.9881 40.9994 57.9727 41.0012 57.9496L40.9852 57.9561Z" fill="white"/>
<path d="M23.2287 57.9561C23.2187 57.8249 23.1168 57.7084 22.9755 57.6881C9.17761 55.9002 3.72085 46.2765 3.66694 46.1797C3.58636 46.0383 3.41188 45.9894 3.26991 46.0623C3.12794 46.1351 3.07964 46.3173 3.1525 46.4593C3.20641 46.5561 8.7917 56.4418 22.8947 58.2609C23.0514 58.28 23.1982 58.168 23.2173 58.0113C23.2156 57.9881 23.2144 57.9727 23.2127 57.9496L23.2287 57.9561Z" fill="white"/>
<path d="M34.7395 60.1401C33.7892 60.1479 32.8995 60.5238 32.2313 61.1974C31.5632 60.5227 30.6724 60.1479 29.7221 60.1401C28.7673 60.1324 27.8666 60.4962 27.1864 61.1666C26.5061 61.8358 26.1191 62.731 26.1191 63.6857C26.1191 67.9888 32.2038 70.293 32.2313 70.293C32.2589 70.293 38.3436 67.9899 38.3436 63.6857C38.3436 62.731 37.9566 61.8369 37.2763 61.1666C36.5961 60.4973 35.6954 60.1324 34.7406 60.1401H34.7395Z" fill="white"/>
<path d="M46.4067 9.4205C47.8539 10.3324 48.858 11.6701 49.3583 13.1615C50.9412 12.9828 52.5943 13.3195 54.0415 14.2314C57.3856 16.3386 58.3639 20.7195 56.2264 24.0164C54.4803 26.7097 51.1951 27.8463 48.2275 27.0235L41.3913 37.5679C43.4656 39.8781 43.8307 43.3492 42.0617 46.0778C39.9242 49.3747 35.4805 50.3391 32.1363 48.2319C30.6892 47.32 29.6851 45.9823 29.1848 44.4909C27.6018 44.6696 25.9487 44.3329 24.5016 43.421C21.1574 41.3138 20.1792 36.9329 22.3166 33.636C24.0628 30.9427 27.348 29.8061 30.3156 30.629L37.1518 20.0845C35.0775 17.7744 34.7123 14.3032 36.4813 11.5746C38.6188 8.27768 43.0625 7.31328 46.4067 9.4205Z" fill="white"/>
</g>
<defs>
<clipPath id="clip0_1020_48411">
<rect width="64" height="74.4348" fill="white" transform="translate(0.31543 0.652222)"/>
</clipPath>
</defs>
</svg>
