<svg width="54" height="54" viewBox="0 0 54 54" fill="none" xmlns="http://www.w3.org/2000/svg">
<g filter="url(#filter0_b_1378_19197)">
<rect width="54" height="54" rx="8" fill="#F2E5FF" fill-opacity="0.3"/>
<rect x="0.5" y="0.5" width="53" height="53" rx="7.5" stroke="#F2E6FF"/>
<g clip-path="url(#clip0_1378_19197)">
<path d="M41.9921 16.1754L39.9875 35.7724C39.8912 37.1996 39.0493 37.3709 37.5738 37.1914L37.5498 35.593L38.2875 35.6746L40.3082 16.0041L18.8664 13.7207L18.5857 16.4772L16.8778 16.5587L17.1905 13.5413C17.2787 12.5953 18.1046 11.9102 19.0428 12.0081L40.4926 14.2916C41.4228 14.3894 42.0964 15.2376 42.0001 16.1836L41.9921 16.1754ZM35.922 18.2468L36.8201 38.1945C36.8602 39.1405 36.1385 39.9479 35.2084 39.9887L13.6703 40.9918C12.7402 41.0326 11.9463 40.2986 11.9062 39.3526L11.0001 19.413C10.96 18.467 11.6817 17.6597 12.6119 17.6189L34.1499 16.6158C35.0801 16.575 35.8739 17.309 35.914 18.255L35.922 18.2468ZM13.5821 39.0998L35.1201 38.0967L34.2301 18.3365L12.6921 19.3396L13.5821 39.0998ZM34.0136 32.2004C33.9895 31.5888 33.749 31.0098 33.34 30.5612L31.8245 28.8976C31.2953 28.3838 30.4613 28.4246 29.9802 28.9873L27.2378 32.2167L21.288 24.7547C20.7748 24.1104 19.8046 24.1186 19.3074 24.771L14.6566 31.0098C14.2958 31.4909 14.1194 32.0863 14.1434 32.6898L14.392 38.2027L34.2461 37.273L34.0136 32.2004ZM30.5335 25.3908C31.8165 25.3337 32.8108 24.2246 32.7466 22.9198C32.6905 21.6149 31.6 20.6037 30.317 20.6689C29.034 20.726 28.0397 21.8351 28.1039 23.14C28.16 24.4448 29.2505 25.4561 30.5335 25.3908Z" fill="#A461D8"/>
</g>
</g>
<defs>
<filter id="filter0_b_1378_19197" x="-54" y="-54" width="162" height="162" filterUnits="userSpaceOnUse" color-interpolation-filters="sRGB">
<feFlood flood-opacity="0" result="BackgroundImageFix"/>
<feGaussianBlur in="BackgroundImageFix" stdDeviation="27"/>
<feComposite in2="SourceAlpha" operator="in" result="effect1_backgroundBlur_1378_19197"/>
<feBlend mode="normal" in="SourceGraphic" in2="effect1_backgroundBlur_1378_19197" result="shape"/>
</filter>
<clipPath id="clip0_1378_19197">
<rect width="31" height="29" fill="white" transform="translate(11 12)"/>
</clipPath>
</defs>
</svg>
