<svg width="54" height="54" viewBox="0 0 54 54" fill="none" xmlns="http://www.w3.org/2000/svg">
<g filter="url(#filter0_b_1378_19041)">
<rect width="54" height="54" rx="8" fill="#DCF0FF" fill-opacity="0.3"/>
<rect x="0.5" y="0.5" width="53" height="53" rx="7.5" stroke="#DCF0FF"/>
<path d="M37.5208 44.0124C34.4645 45.9065 30.86 47 27 47C15.9543 47 7 38.0457 7 27C7 23.14 8.09348 19.5355 9.98758 16.4792M43.9474 37.625C45.8815 34.5466 47 30.9039 47 27C47 15.9543 38.0457 7 27 7C23.2274 7 19.6987 8.04455 16.6875 9.86022" stroke="#74B4FF" stroke-linecap="round" stroke-linejoin="round"/>
<path opacity="0.5" d="M14.8728 12.2334C14.8728 13.5959 13.7686 14.7001 12.4061 14.7001C11.0436 14.7001 9.93945 13.5959 9.93945 12.2334C9.93945 10.8709 11.0436 9.76672 12.4061 9.76672C13.7686 9.76672 14.8728 10.8709 14.8728 12.2334Z" fill="#50B5FF"/>
<path opacity="0.5" d="M15.7323 12.2333C15.7323 14.0708 14.2427 15.5604 12.4052 15.5604C10.5677 15.5604 9.07812 14.0708 9.07812 12.2333C9.07812 10.3958 10.5677 8.90625 12.4052 8.90625C14.2427 8.90625 15.7323 10.3958 15.7323 12.2333Z" fill="#50B5FF"/>
<path d="M14.2589 12.2333C14.2589 13.2562 13.4297 14.0854 12.4068 14.0854C11.3839 14.0854 10.5547 13.2562 10.5547 12.2333C10.5547 11.2104 11.3839 10.3812 12.4068 10.3812C13.4297 10.3812 14.2589 11.2104 14.2589 12.2333Z" fill="#FFEEC6"/>
<path d="M13.8594 12.2333C13.8594 13.0354 13.2094 13.6854 12.4073 13.6854C11.6052 13.6854 10.9531 13.0354 10.9531 12.2333C10.9531 11.4313 11.6031 10.7792 12.4073 10.7792C13.2115 10.7792 13.8594 11.4292 13.8594 12.2333Z" fill="#FFC542"/>
<g style="mix-blend-mode:multiply" opacity="0.7">
<path d="M39.0625 41.6979C39.0625 40.3354 40.1667 39.2312 41.5292 39.2312C42.8917 39.2312 43.9958 40.3354 43.9958 41.6979C43.9958 43.0604 42.8917 44.1645 41.5292 44.1645C40.1667 44.1645 39.0625 43.0604 39.0625 41.6979Z" fill="#422756"/>
</g>
<g style="mix-blend-mode:multiply" opacity="0.7">
<path d="M38.1992 41.6979C38.1992 39.8604 39.6888 38.3708 41.5263 38.3708C43.3638 38.3708 44.8534 39.8604 44.8534 41.6979C44.8534 43.5354 43.3638 45.025 41.5263 45.025C39.6888 45.025 38.1992 43.5354 38.1992 41.6979Z" fill="#422756"/>
</g>
<path d="M43.3809 41.6979C43.3809 42.3687 43.0246 42.9562 42.4913 43.2792C42.66 43 42.7559 42.6729 42.7559 42.3229C42.7559 41.3 41.9267 40.4708 40.9038 40.4708C40.5517 40.4708 40.2246 40.5687 39.9434 40.7375C40.2684 40.2021 40.8559 39.8458 41.5288 39.8458C42.5517 39.8458 43.3809 40.675 43.3809 41.6979Z" fill="#FFEEC6"/>
<path d="M42.0204 27.1916C42.0204 35.5583 35.2371 42.3395 26.8725 42.3395C20.1246 42.3395 14.4059 37.9249 12.4475 31.827C11.9767 30.3645 11.7246 28.8083 11.7246 27.1916C11.7246 18.825 18.5059 12.0437 26.8725 12.0437C30.1267 12.0437 33.1371 13.0687 35.6059 14.8145C39.4871 17.5562 42.0204 22.0791 42.0204 27.1937V27.1916Z" fill="#74B4FF"/>
<mask id="mask0_1378_19041" style="mask-type:alpha" maskUnits="userSpaceOnUse" x="11" y="12" width="32" height="31">
<path d="M26.8725 42.3395C35.2385 42.3395 42.0204 35.5576 42.0204 27.1916C42.0204 18.8257 35.2385 12.0437 26.8725 12.0437C18.5066 12.0437 11.7246 18.8257 11.7246 27.1916C11.7246 35.5576 18.5066 42.3395 26.8725 42.3395Z" fill="black"/>
</mask>
<g mask="url(#mask0_1378_19041)">
<path d="M38.4714 12.7458L38.7214 12.1042L37.5902 11.3417L34.7131 11.8083L34.4964 12.5521L35.3902 13.0188L34.8214 13.4083L33.5318 14.4854L33.1985 15.2771L34.2006 15.5833L34.7547 15.7521L36.4527 13.9792L38.4714 12.7458Z" fill="#9EEACC"/>
<path d="M39.5026 38.2584L38.7672 38.8375L37.838 41.298L37.1276 41.5813L35.6547 43.9834L35.0422 44.1417V44.7396L33.9359 45.8459L33.4839 48.0313L34.3922 49.5292L33.2693 49.7521L32.3901 49.175L31.7776 47.3688L31.9068 40.675L30.7693 40.1313L29.2526 37.4125L30.4318 35.925L30.2547 35.2063L29.8964 35.3542L29.0297 34.9188L27.1943 33.6209L26.7693 34.1563L25.0422 33.2667V32.7875L23.7005 30.0438L24.2005 32.5146L23.9609 32.5521L22.5214 29.2105L22.1234 27.8084L22.1589 27.625L22.6797 25.0521L21.9714 22.475L21.4526 20.9188L20.1839 19.9167L16.0589 22.2188L15.8047 21.95L18.0339 20.6063L16.7859 19.4021L17.9651 18.1938L18.5755 18.2105L18.9339 17.6979L18.013 17.4417L17.8026 16.7771L18.9297 16.6438L18.913 17.2375L19.4359 16.8834L19.2589 15.6125L21.763 14.7521L24.1422 17.0104L25.9693 16.6167L27.138 17.7542L27.6547 18.4688L28.988 18.1292L30.013 18.7417L30.6172 18.4625L31.088 17.4084L31.8964 15.7667L32.6339 16.0959L31.4651 18.1L31.5089 18.275L31.6943 19.0084L32.4943 18.475L32.738 19.1625L32.4443 19.7959L31.3755 20.3334L29.7089 21.5875L29.513 22.8667L30.3339 23.5L30.6943 23.7834L31.5193 24.0771L32.238 23.3021L32.1089 21.6875L32.9109 21.1292L33.7172 21.8167L34.063 22.7271L34.6547 22.0979L34.6672 22.4375L35.1797 23.7979L35.9339 24.7459L35.3464 25.2646L33.8359 25.498L33.7505 26.125L34.2359 26.2625L34.5422 26.773L33.7651 27.0813L33.2901 26.9834L31.7651 28.0688L31.7464 28.8167L30.4068 29.8938L30.063 31.5667L29.9172 31.5813L29.4901 30.548L28.5359 30.425L26.8068 31.0125L26.6443 32.5146L27.5109 33.0354L28.3943 32.4021L28.7526 32.4855L28.4255 33.6209L29.2464 33.7125L29.2714 34.3334L29.9297 34.95L30.1651 34.6667L30.7172 34.9521L31.6172 34.5959L34.788 34.823L35.8193 36.3834L38.2109 36.5646L39.2797 37.6355L39.5026 38.2584Z" fill="#9EEACC"/>
<path d="M35.1567 21.0771L34.6296 20.3104L34.7879 20.0959L35.0379 20.6521L35.7004 20.4354L35.6692 20.1146L34.8296 19.3709L35.1838 19.2396L35.1942 18.7604L34.7129 18.15L34.3963 17.9813L34.3671 17.5813L33.9504 17.2334L33.6421 17.375L33.7421 16.7875L33.4067 16.7584L32.7317 17.1959L33.2025 16.7417L33.1004 16.6834L32.8942 16.5688L31.9546 17.4417L31.9754 17.8063L31.9942 18.1896L32.9754 18.575L33.6046 18.4875L34.0733 19.775L33.4046 20.1938H32.8171L32.6942 20.6771L33.5692 20.8396L33.8942 21.525L34.3817 21.85L34.7983 21.7542L34.2754 21.2646L34.9525 21.45L35.1567 21.0771Z" fill="#9EEACC"/>
<path d="M34.1839 11.9875L34.0402 12.6334L34.6402 12.8834L33.7964 13.9834L32.8673 13.5604L32.9131 12.2667L34.1839 11.9875Z" fill="#9EEACC"/>
<path d="M27.2193 16.4563L27.9422 15.9375L28.9422 15.4292L28.5339 14.9438L28.0797 14.6167L27.2193 15.0396L26.5339 15.9479L27.2193 16.4563Z" fill="#9EEACC"/>
<path d="M28.8401 15.9L27.9151 16.2583L27.5172 16.7333L28.3255 17.3417L28.1526 17.4562L27.3839 17.3042L27.8005 18.1875L29.0151 17.7583L29.5151 18.075L29.9818 17.8937L29.6693 17.3146L30.4401 15.8479L30.0651 15.8083L29.2214 16.6625L28.8401 15.9Z" fill="#9EEACC"/>
<path d="M30.8381 15.9625L30.3339 16.5042L30.5589 17.2771H30.8568L31.461 16.2854L30.8381 15.9625Z" fill="#9EEACC"/>
<path d="M30.6547 14.2792L30.5901 14.6813L31.036 14.8021L31.0235 15.2792L29.686 15.3271L28.9464 14.7271L29.436 14.1146L29.963 14.4021L30.3485 14.1209L30.6547 14.2792Z" fill="#9EEACC"/>
<path d="M31.9942 12.8854L31.8797 13.425L31.5005 13.5375V13.8375L32.2109 14.0896L32.6317 13.85L32.5526 12.8396L31.9942 12.8854Z" fill="#9EEACC"/>
<path d="M30.0422 13.3021V13.8375L30.6192 13.9771L30.8984 13.5937L30.6276 13.3958L30.0422 13.3021Z" fill="#9EEACC"/>
<path d="M29.8486 13.2188L29.9611 13.6438L29.0153 14.3625L28.5049 13.9333L29.8486 13.2188Z" fill="#9EEACC"/>
<path d="M34.3402 16.0563L33.9631 16.3333L33.5423 16.2417L32.8569 16.0938L32.4756 15.5354L32.6715 15.3146L32.1027 14.7479L32.361 14.4167L33.1194 14.9438L32.9631 15.3563L34.3402 16.0563Z" fill="#9EEACC"/>
<path d="M44.2757 13.95L44.0424 14.3333L43.0736 15.9313L43.0174 16.7104L42.3153 19.75L40.7945 20.2167L40.4466 20.8417L39.5507 21.0333L38.7007 22.8271L38.2341 23.2L37.4632 22.3917L37.0278 20.5125L37.4466 19.725L37.2632 18.5146L37.3924 16.5479L36.0216 16.3583L35.7966 14.8063L37.1257 14.7333V14.1063L38.2861 13.0125L39.3778 12.5875L39.7736 12.8333L40.2861 12.5458C40.2861 12.5458 42.032 12.0042 42.1861 12.1271L43.2507 12.8813L42.9716 13.2188L43.4195 13.6854L43.907 13.7L43.9445 13.725L44.2716 13.9521L44.2757 13.95Z" fill="#9EEACC"/>
<path d="M35.6047 26.7L36.0213 26.45L35.6817 25.2542L34.7297 26.1521L35.6047 26.7Z" fill="#9EEACC"/>
<path d="M31.3985 32.5417L31.3959 32.5432C31.2768 32.5131 28.8402 31.7146 28.8402 31.7146L29.1152 32.3292L30.5027 33.0542L31.3959 32.5432L31.3985 32.5438V32.5417Z" fill="#9EEACC"/>
<path d="M32.2505 33.1083L32.588 33.0812L31.6547 32.775L31.238 33.15L32.2505 33.1083Z" fill="#9EEACC"/>
<path opacity="0.2" d="M42.0182 27.1917C42.0182 35.5583 35.2349 42.3396 26.8703 42.3396C20.1224 42.3396 14.4036 37.925 12.4453 31.8271C31.1328 30.275 34.9245 20.1854 35.6036 14.8125C39.4849 17.5542 42.0182 22.0771 42.0182 27.1917Z" fill="#1B85F3"/>
<path opacity="0.4" d="M42.0188 27.1916C42.0188 35.5583 35.2354 42.3395 26.8708 42.3395C21.9125 42.3395 17.5146 39.9604 14.75 36.2812C17.2812 38.1833 20.4292 39.3104 23.8396 39.3104C32.2063 39.3104 38.9875 32.527 38.9875 24.1625C38.9875 20.752 37.8604 17.6062 35.9583 15.0729C39.6375 17.8375 42.0167 22.2375 42.0167 27.1937L42.0188 27.1916Z" fill="#1B85F3"/>
</g>
</g>
<defs>
<filter id="filter0_b_1378_19041" x="-54" y="-54" width="162" height="162" filterUnits="userSpaceOnUse" color-interpolation-filters="sRGB">
<feFlood flood-opacity="0" result="BackgroundImageFix"/>
<feGaussianBlur in="BackgroundImageFix" stdDeviation="27"/>
<feComposite in2="SourceAlpha" operator="in" result="effect1_backgroundBlur_1378_19041"/>
<feBlend mode="normal" in="SourceGraphic" in2="effect1_backgroundBlur_1378_19041" result="shape"/>
</filter>
</defs>
</svg>
